<svg width="164" height="161" viewBox="0 0 164 161" fill="none" xmlns="http://www.w3.org/2000/svg">
<g filter="url(#filter0_dd_1_47)">
<path fill-rule="evenodd" clip-rule="evenodd" d="M108.535 65.5629C107.747 66.641 107.314 67.8953 107.314 69.3467C107.314 70.5208 107.676 71.5562 108.445 72.3328C109.184 73.078 110.098 73.4279 111.114 73.4279C111.995 73.4279 112.796 73.1501 113.496 72.6169C113.443 72.7688 113.39 72.9218 113.339 73.076C112.934 74.2574 112.556 75.4537 112.205 76.665C111.861 77.8203 111.504 78.9757 111.134 80.1313C110.668 81.5539 110.182 82.7681 109.68 83.7816L109.675 83.7921L109.67 83.8027C109.19 84.8229 108.693 85.6827 108.184 86.391C106.835 88.1642 105.186 89.1973 103.202 89.5285H102.714C100.949 89.5285 99.5315 89.0174 98.3995 88.0528L98.3935 88.0478L98.3876 88.0428C97.1155 86.9919 96.5144 85.6632 96.5144 83.9673C96.5144 81.8257 97.0918 80.0616 98.2255 78.608C99.4602 77.0419 100.912 76.2982 102.634 76.2982C103.739 76.2982 104.552 76.6453 105.164 77.2648C105.744 77.8522 106.074 78.678 106.074 79.8861C106.074 81.0711 105.728 82.05 105.027 82.8842L105.017 82.8957C104.327 83.7395 103.502 84.1467 102.474 84.1467C101.913 84.1467 101.429 83.9681 100.992 83.6061C100.595 83.2717 100.434 82.8965 100.434 82.3976C100.434 82.2685 100.466 82.0748 100.578 81.8036C100.579 81.8025 100.58 81.8013 100.581 81.8001L100.881 81.4643C100.996 81.3494 101.095 81.2464 101.171 81.161C101.21 81.1181 101.26 81.0603 101.306 80.9969C101.328 80.9671 101.367 80.911 101.406 80.8378L101.408 80.8347C101.427 80.8001 101.554 80.5686 101.554 80.2448C101.554 79.9264 101.445 79.5246 101.114 79.247C100.838 79.0148 100.544 78.9891 100.394 78.9891C99.4844 78.9891 98.8398 79.5949 98.4513 80.3944C98.0947 81.025 97.8744 81.713 97.8744 82.4424C97.8744 83.1768 98.041 83.8694 98.4023 84.4771C98.7545 85.0694 99.2544 85.5188 99.8422 85.853C100.759 86.4336 101.808 86.703 102.954 86.703C104.485 86.703 105.879 86.1056 107.108 84.969C108.427 83.7643 109.194 82.273 109.194 80.5139C109.194 78.4357 108.592 76.6919 107.29 75.451C106.1 74.2708 104.536 73.7418 102.714 73.7418C100.268 73.7418 98.1242 74.6261 96.3347 76.3974C94.4273 78.2692 93.4344 80.6023 93.4344 83.3394C93.4344 85.9716 94.3514 88.1599 96.1581 89.8105C97.8223 91.3687 99.8411 92.1297 102.154 92.1297C102.611 92.1297 103.057 92.0985 103.492 92.0353C103.965 91.9996 104.428 91.9156 104.878 91.7821C108.648 90.7776 111.594 88.2601 113.693 84.3185C113.692 84.3188 113.693 84.3182 113.693 84.3185L112.834 83.743M115.029 78.1311C115.137 77.8047 115.246 77.467 115.358 77.118C115.369 77.084 115.38 77.05 115.391 77.0158C115.396 77.0008 115.401 76.9859 115.405 76.9709C115.544 76.5355 115.687 76.0829 115.833 75.6131C115.835 75.6075 115.837 75.602 115.838 75.5964C115.847 75.567 115.857 75.5375 115.866 75.5079C115.976 75.153 116.088 74.7884 116.202 74.414C116.458 74.2963 116.738 74.2352 117.034 74.2352C117.127 74.2352 117.218 74.2402 117.308 74.2501C117.231 74.5035 117.156 74.7527 117.081 74.9978C117.092 74.9977 117.103 74.9976 117.114 74.9976C117.71 74.9976 118.197 75.3207 118.562 75.7188C118.834 76.0164 119.075 76.3919 119.291 76.8161L119.311 76.8101L119.314 76.8173L119.332 76.8095L119.123 76.3182C119.308 76.2192 119.53 76.0734 119.793 75.8764C119.928 76.0444 120.059 76.2216 120.187 76.4063C120.691 76.1332 121.237 75.7769 121.826 75.3309C121.88 75.288 121.934 75.2443 121.989 75.1998L121.425 74.4588C121.426 74.4583 121.426 74.4579 121.426 74.4575C121.426 74.4576 121.427 74.4574 121.426 74.4575L121.989 75.1998C122.8 74.5415 123.679 73.7118 124.626 72.7042L124.634 72.6954L124.643 72.6868C125.125 72.1968 125.598 71.707 126.063 71.2174L125.378 70.4254C125.38 70.424 125.381 70.4226 125.382 70.4212C125.383 70.4198 125.385 70.4185 125.386 70.4171L126.063 71.2174C126.413 70.8484 126.759 70.4794 127.099 70.1107C127.526 69.6477 127.952 69.1926 128.379 68.7452C128.784 68.3211 129.189 67.9041 129.593 67.494C129.756 67.3192 129.921 67.1479 130.087 66.9803C130.087 66.9805 130.088 66.98 130.087 66.9803C130.603 66.4612 131.136 65.976 131.684 65.5263L131.692 65.5203L131.699 65.5146C132.079 65.2148 132.463 64.919 132.85 64.6274C132.485 64.9159 132.11 65.2258 131.726 65.5572C131.721 65.561 131.717 65.5649 131.712 65.5688C131.197 66.0123 130.665 66.4943 130.114 67.0145C129.964 67.1636 129.8 67.3275 129.623 67.5062C129.616 67.5134 129.608 67.5205 129.601 67.5277C129.25 67.8821 128.848 68.2941 128.394 68.7636C128.002 69.1685 127.572 69.6199 127.106 70.118C127.106 70.1182 127.106 70.1179 127.106 70.118C126.78 70.4659 126.436 70.8369 126.074 71.2303M121.916 75.4611C121.912 75.4652 121.908 75.4693 121.903 75.4734C120.995 76.3266 120.26 76.9189 119.696 77.2502C119.647 77.2786 119.6 77.3051 119.554 77.3297C119.532 77.2946 119.509 77.2599 119.486 77.2257C119.482 77.2198 119.478 77.2138 119.474 77.2079C119.391 77.084 119.309 76.9663 119.226 76.8548C119.222 76.8496 119.218 76.8443 119.214 76.8391C118.505 75.8874 117.805 75.3938 117.114 75.3584C117.088 75.357 117.061 75.3564 117.034 75.3564C117.013 75.3564 116.991 75.3569 116.97 75.358C116.626 75.3759 116.34 75.5398 116.114 75.8497C115.883 76.1956 115.763 76.5694 115.755 76.9709C115.755 76.9858 115.754 77.0008 115.754 77.0158C115.754 77.3808 115.896 77.6666 116.178 77.8731C116.243 77.9204 116.315 77.9635 116.394 78.0024C116.498 78.0761 116.611 78.1368 116.734 78.1845C116.767 78.1972 116.8 78.2091 116.834 78.2199C116.912 78.2448 116.994 78.2648 117.08 78.2801C117.104 78.2845 117.129 78.2884 117.154 78.292C117.268 78.3083 117.388 78.3164 117.514 78.3164C117.635 78.3164 117.755 78.3115 117.874 78.3019C117.928 78.2976 117.981 78.2923 118.034 78.286C118.115 78.2764 118.195 78.2647 118.274 78.2507C118.414 78.226 118.552 78.1945 118.689 78.1561C118.711 78.1499 118.733 78.1435 118.754 78.137C118.841 78.3485 118.927 78.5601 119.013 78.7717L118.912 78.8L119.012 79.2203C118.735 79.3032 118.453 79.3621 118.168 79.3975C118.101 79.2315 118.034 79.0654 117.966 78.8994H117.072L116.99 78.8841C116.917 78.8706 116.865 78.862 116.83 78.8571C116.822 78.8559 116.816 78.8551 116.811 78.8545H116.711L116.592 78.8211C116.442 78.7791 116.293 78.715 116.152 78.6245L115.994 79.0296C115.97 79.0182 115.947 79.0064 115.924 78.9942C115.902 78.9794 115.88 78.9641 115.857 78.9483L116.072 78.5701C116.04 78.5462 116.007 78.5208 115.976 78.4938C115.926 78.6451 115.877 78.7942 115.828 78.9408C115.558 78.782 115.303 78.562 115.106 78.2583C115.079 78.2165 115.053 78.1741 115.029 78.1311M115.828 78.9408C115.86 78.9595 115.892 78.9773 115.924 78.9942C116.404 79.3139 116.954 79.4376 117.514 79.4376C117.734 79.4376 117.952 79.4243 118.168 79.3975C118.505 80.232 118.835 81.0664 119.157 81.9008C119.586 83.0149 120.029 84.1288 120.486 85.2427L120.489 85.2505L120.492 85.2583C121.094 86.6699 121.716 87.9264 122.359 89.023C123 90.1174 123.667 91.0608 124.364 91.8424C126.177 93.9074 128.291 95 130.674 95C131.825 95 132.865 94.7531 133.741 94.1902C134.63 93.6197 135.285 92.7661 135.709 91.6849L135.721 91.656L135.731 91.6264C135.822 91.3544 135.899 91.0803 135.961 90.8041C136.035 90.5047 136.074 90.1983 136.074 89.8873C136.074 89.5139 135.963 89.0518 135.598 88.7168C135.271 88.4169 134.892 88.3624 134.634 88.3624C134.427 88.3624 134.088 88.4213 133.807 88.7357C133.572 88.9998 133.497 89.3106 133.479 89.5411C133.349 90.4348 133.103 90.9602 132.837 91.2584C132.587 91.5386 132.225 91.7261 131.634 91.7261C131.504 91.7261 131.335 91.7078 131.121 91.6604C130.927 91.6118 130.733 91.5515 130.537 91.4793C129.976 91.2254 129.231 90.6459 128.297 89.6273C127.404 88.6257 126.422 87.2167 125.353 85.3739L125.346 85.3635C124.553 84.0284 123.772 82.6784 123.004 81.3136C122.454 80.2996 121.896 79.2857 121.331 78.2718C121.858 77.9681 122.399 77.6035 122.955 77.182L122.963 77.1758L122.971 77.1693C123.924 76.4151 124.932 75.4692 125.994 74.3397C126.852 73.4677 127.684 72.5953 128.489 71.7225C129.308 70.8342 130.127 69.9755 130.945 69.1472L130.956 69.1361L130.966 69.1247C131.573 68.4726 132.203 67.8788 132.857 67.3425C133.563 66.7856 134.283 66.2432 135.015 65.7153C136.997 64.2931 138.345 63.7406 139.154 63.7406C139.396 63.7406 139.445 63.8097 139.451 63.8174L139.469 63.8398L139.487 63.8607C139.74 64.1445 140.067 64.2788 140.394 64.2788C140.607 64.2788 140.954 64.2313 141.255 63.9416C141.586 63.6235 141.674 63.2 141.674 62.8885C141.674 61.8234 140.966 61.2309 140.322 60.9486C139.832 60.7298 139.334 60.6012 138.834 60.6012C137.558 60.6012 136.14 61.1357 134.618 62.0594C133.084 62.9906 131.366 64.3649 129.47 66.1572L129.461 66.1654L129.453 66.1738C128.992 66.63 128.412 67.2193 127.716 67.9398L128.379 68.7452M140.07 61.667L140.326 60.9505C140.324 60.9499 140.323 60.9492 140.322 60.9486C140.32 60.9479 140.318 60.9472 140.317 60.9465L140.067 61.6659C139.776 61.5489 139.466 61.4982 139.154 61.4982C139.05 61.4982 138.943 61.5029 138.834 61.5123C137.728 61.6077 136.435 62.1833 134.995 63.1064C136.491 62.1838 137.771 61.7224 138.834 61.7224C138.939 61.7224 139.045 61.7305 139.154 61.7468C139.408 61.7845 139.675 61.8661 139.954 61.9915C140.029 62.0239 140.097 62.0584 140.16 62.095C140.282 62.0375 140.377 62.0364 140.394 62.0364C140.467 62.0364 140.558 62.0504 140.656 62.0941C140.754 62.1384 140.837 62.2031 140.901 62.2751L140.621 62.59C140.625 62.6016 140.629 62.6132 140.633 62.6251L140.938 62.3178C140.688 62.0065 140.391 61.7965 140.07 61.667ZM139.695 62.7077C139.536 62.6488 139.356 62.6194 139.154 62.6194C139.051 62.6194 138.945 62.6255 138.834 62.6376C137.956 62.7341 136.843 63.2143 135.494 64.0783C135.519 64.0625 135.545 64.0469 135.57 64.0315C136.955 63.1912 138.031 62.8436 138.834 62.8436C138.928 62.8436 139.034 62.8554 139.154 62.8835C139.281 62.9133 139.424 62.9612 139.583 63.0326L139.592 63.0365C139.664 63.0681 139.71 63.0956 139.737 63.1141C139.752 63.1252 139.759 63.1314 139.759 63.1314C139.759 63.1314 139.756 63.1287 139.751 63.1228C139.738 63.1063 139.716 63.0728 139.698 63.0224C139.68 62.9713 139.674 62.9237 139.674 62.8885C139.674 62.8578 139.677 62.8187 139.683 62.7739C139.685 62.7608 139.687 62.7473 139.69 62.7333C139.691 62.7249 139.693 62.7164 139.695 62.7077ZM134.474 64.7721L135.015 65.7153C135.015 65.7157 135.014 65.7161 135.013 65.7165L134.474 64.7721ZM133.417 65.5512C133.032 65.8405 132.652 66.134 132.274 66.4315C131.751 66.8606 131.242 67.3237 130.749 67.821C130.744 67.8264 130.738 67.8319 130.733 67.8373C130.579 67.9933 130.426 68.1525 130.274 68.3152C129.869 68.7259 129.463 69.1439 129.057 69.5691C129.057 69.5695 129.057 69.5699 129.056 69.5703C128.636 70.0113 128.215 70.4599 127.794 70.9164C127.454 71.285 127.109 71.6537 126.759 72.0224C126.757 72.0251 126.754 72.0278 126.752 72.0305C126.281 72.5262 125.802 73.0219 125.314 73.5176C124.368 74.5244 123.477 75.3702 122.641 76.0551C122.64 76.0555 122.64 76.0559 122.639 76.0563C122.557 76.1235 122.475 76.1892 122.394 76.2533C121.837 76.6761 121.305 77.031 120.798 77.3182C120.48 77.4982 120.172 77.6515 119.874 77.7782C119.964 77.9368 120.053 78.0954 120.141 78.2541C120.233 78.4176 120.324 78.5811 120.416 78.7446C120.716 78.6087 121.021 78.4509 121.331 78.2718C121.22 78.0715 121.108 77.8712 120.996 77.671C121.447 77.3258 121.942 76.8967 122.48 76.3946C122.48 76.3939 122.481 76.3932 122.482 76.3925C122.561 76.3185 122.641 76.2429 122.722 76.1658L122.724 76.1643C123.484 75.4362 124.355 74.5624 125.336 73.5443L125.986 74.3484C125.989 74.3455 125.992 74.3426 125.994 74.3397C125.997 74.3368 126 74.3339 126.003 74.331L125.336 73.5443C125.788 73.0749 126.264 72.5742 126.763 72.0436L126.771 72.0352C127.133 71.6415 127.476 71.2711 127.801 70.9242C128.262 70.4321 128.685 69.9871 129.071 69.5888L129.073 69.5875C129.534 69.1096 129.941 68.6934 130.293 68.3383C130.293 68.3385 130.293 68.3381 130.293 68.3383C130.464 68.1659 130.622 68.0073 130.768 67.8636C131.298 67.3621 131.81 66.8994 132.302 66.4749L132.85 67.3484C132.852 67.3465 132.855 67.3445 132.857 67.3425C132.86 67.3406 132.862 67.3387 132.864 67.3368L132.302 66.4749C132.685 66.1441 133.057 65.8359 133.417 65.5512ZM122.154 81.9042L123 81.3063C123.002 81.3087 123.003 81.3111 123.004 81.3136C123.006 81.3161 123.007 81.3187 123.009 81.3213L122.154 81.9042ZM117.979 76.657C117.695 76.2982 117.407 76.1188 117.114 76.1188C117.087 76.1188 117.06 76.1196 117.034 76.1213C116.908 76.1294 116.799 76.1573 116.708 76.2049C116.673 76.223 116.641 76.244 116.612 76.2678C116.604 76.2737 116.597 76.2798 116.59 76.2861C116.433 76.4263 116.354 76.6545 116.354 76.9709C116.354 76.9861 116.355 77.001 116.355 77.0158C116.357 77.0974 116.366 77.1724 116.381 77.2407C116.413 77.3825 116.472 77.4957 116.559 77.5805C116.575 77.5959 116.592 77.6104 116.609 77.624C116.672 77.6725 116.748 77.709 116.834 77.7333C116.888 77.7333 116.994 77.7483 117.154 77.7782H118.274C118.375 77.7782 118.476 77.7648 118.577 77.7381C118.583 77.7366 118.589 77.735 118.594 77.7333C118.491 77.5005 118.386 77.2928 118.281 77.1104C118.279 77.1065 118.277 77.1027 118.274 77.0989C118.195 76.9614 118.115 76.8384 118.034 76.7299C118.016 76.7048 117.997 76.6805 117.979 76.657ZM117.553 76.657C117.381 76.5478 117.234 76.4978 117.114 76.4827C117.086 76.4792 117.06 76.4776 117.034 76.4776C116.982 76.4776 116.962 76.4881 116.956 76.4912C116.95 76.4942 116.931 76.5051 116.9 76.5439C116.885 76.5671 116.872 76.5899 116.86 76.6124C116.939 76.6142 117.028 76.6243 117.114 76.6372C117.156 76.6433 117.196 76.6501 117.235 76.657H117.553ZM117.154 76.6845C117.139 76.6743 117.126 76.6666 117.114 76.6609C117.095 76.6513 117.082 76.647 117.077 76.6456L116.979 77.0864C117.015 77.1066 117.059 77.1264 117.114 77.1435C117.127 77.1474 117.14 77.1512 117.154 77.1549V76.6845ZM117.251 77.1246L117.295 76.8343C117.327 76.8861 117.342 76.9304 117.349 76.9582C117.348 76.9621 117.346 76.9664 117.345 76.9709C117.332 77.0079 117.305 77.0645 117.251 77.1246ZM116.834 76.9944V76.662C116.786 76.7637 116.763 76.8593 116.756 76.9546C116.765 76.9596 116.775 76.9651 116.787 76.9709C116.789 76.9723 116.792 76.9738 116.795 76.9752L116.834 76.9944ZM125.074 91.0533L124.367 91.8461C124.366 91.8449 124.365 91.8437 124.364 91.8424C124.363 91.8416 124.362 91.8407 124.362 91.8398L125.074 91.0533ZM130.813 93.8774C131.101 93.8717 131.374 93.8482 131.634 93.8069C133.162 93.564 134.215 92.706 134.794 91.2327C134.874 90.9935 134.941 90.7543 134.994 90.5152C134.995 90.5116 134.996 90.508 134.997 90.5044C135.071 90.4626 135.148 90.4038 135.221 90.3213C135.352 90.175 135.416 90.0168 135.447 89.8873C135.451 89.8689 135.455 89.851 135.458 89.8339C135.471 89.7617 135.474 89.7019 135.474 89.663V89.7494L135.463 89.8347C135.46 89.8523 135.458 89.8698 135.455 89.8873C135.42 90.1339 135.376 90.3742 135.322 90.6069L135.965 90.7871C135.963 90.7928 135.962 90.7984 135.961 90.8041C135.959 90.8105 135.958 90.8168 135.956 90.8232L135.319 90.6191C135.259 90.8767 135.187 91.1249 135.102 91.362C135.099 91.3684 135.097 91.3748 135.095 91.3812C134.892 91.9392 134.617 92.4347 134.251 92.844C133.555 93.6252 132.644 93.9685 131.634 93.9685C131.37 93.9685 131.095 93.9354 130.813 93.8774ZM134.325 90.4462C134.282 90.6161 134.233 90.777 134.179 90.9288C134.175 90.942 134.17 90.9551 134.165 90.9681C133.707 92.2209 132.864 92.8473 131.634 92.8473C131.421 92.8473 131.181 92.8174 130.914 92.7576C130.909 92.7562 130.903 92.7548 130.898 92.7535C130.904 92.7533 130.91 92.753 130.915 92.7528L131.11 91.6581C131.114 91.6589 131.117 91.6597 131.121 91.6604C131.124 91.6613 131.128 91.6622 131.131 91.6631L130.915 92.7528C131.175 92.7423 131.414 92.7148 131.634 92.6721C132.078 92.586 132.445 92.4382 132.747 92.2444C133.226 91.9372 133.6 91.4764 133.868 90.809C133.931 90.6185 133.983 90.4299 134.024 90.2432L134.028 90.2251L134.033 90.2071C134.062 90.094 134.074 89.9883 134.074 89.8873C134.074 89.9588 134.092 90.1037 134.174 90.2524C134.181 90.2655 134.189 90.2786 134.197 90.2917C134.23 90.3446 134.272 90.3971 134.325 90.4462ZM128.297 89.6273C128.295 89.6255 128.293 89.6237 128.292 89.6219L127.595 90.4253L128.301 89.6326C128.3 89.6309 128.298 89.6291 128.297 89.6273ZM130.194 92.5333L130.511 91.4697C130.519 91.4729 130.528 91.4761 130.537 91.4793C130.544 91.4829 130.552 91.4864 130.56 91.4898L130.194 92.5333ZM134.474 89.663H133.474C133.474 89.6259 133.476 89.585 133.479 89.5411C133.482 89.5247 133.484 89.5081 133.486 89.4914L134.474 89.663ZM125.382 70.4212C123.818 72.0855 122.5 73.4295 121.426 74.4575C120.769 75.0841 120.227 75.5504 119.793 75.8764C119.076 74.9849 118.251 74.3534 117.308 74.2501C117.424 73.8646 117.543 73.4695 117.663 73.0649L117.664 73.0601C118.787 69.2262 120.558 66.1966 122.959 63.9248L122.965 63.9192C123.325 63.5735 123.637 63.2944 123.903 63.0777L123.908 63.0728L123.914 63.0679C124.201 62.8264 124.443 62.6571 124.642 62.5459L124.43 61.543H125.154V60.377H123.474C121.884 60.377 120.294 60.4998 118.705 60.7451C117.124 60.9634 115.558 61.3524 114.008 61.9107L114.004 61.9124C112.429 62.4892 111.075 63.1965 110.004 64.052C110.143 63.6446 110.213 63.2866 110.213 62.9782C110.213 61.3337 108.946 60.5115 106.412 60.5115C101.586 60.5115 95.2125 65.7887 87.2925 76.343C83.1058 81.9042 79.5325 85.6117 76.5725 87.4655C77.4258 86.718 78.2525 85.6117 79.0525 84.1467C79.8792 82.6816 80.6392 80.8578 81.3325 78.6751C81.5458 77.9277 81.7192 77.2848 81.8525 76.7467C82.0125 76.2085 82.1458 75.7451 82.2525 75.3564C83.1592 71.918 84.2925 69.242 85.6525 67.3285C87.5725 68.2255 88.8792 68.6739 89.5725 68.6739C90.6392 68.6739 91.1725 68.1358 91.1725 67.0594C91.1725 65.4448 90.0658 64.6376 87.8525 64.6376C86.6258 64.6376 85.3058 65.1309 83.8925 66.1176C82.5058 65.3402 81.1325 64.5778 79.7725 63.8303C78.4125 63.0529 77.0392 62.3055 75.6525 61.5879C74.0258 60.7208 72.4792 60.0929 71.0125 59.7042C69.5458 59.3156 68.1592 59.1212 66.8525 59.1212C64.7192 59.1212 62.5858 59.5398 60.4525 60.377C58.3725 61.1244 56.6525 62.6044 55.2925 64.817C53.9858 66.9099 53.3325 69.2121 53.3325 71.7236C53.3325 72.6804 53.4258 73.5325 53.6125 74.28C52.0658 74.9677 50.8392 76.1038 49.9325 77.6885C49.0258 79.2731 48.5725 81.0073 48.5725 82.8909C48.5725 85.4323 49.4125 87.4655 51.0925 88.9903" fill="#724776"/>
</g>
<g filter="url(#filter1_dd_1_47)">
<path fill-rule="evenodd" clip-rule="evenodd" d="M52.4125 89.3042C52.0494 89.0686 51.7183 88.8133 51.4191 88.5384C51.4191 88.5383 51.4192 88.5384 51.4191 88.5384C50.4659 87.6624 49.8369 86.587 49.5325 85.3127C49.4258 84.8642 49.3458 84.4307 49.2925 84.0121C49.2481 83.6384 49.2221 83.2646 49.2147 82.8909C49.2132 82.8162 49.2125 82.7414 49.2125 82.6667C49.2125 80.9303 49.5871 79.3677 50.3364 77.979C50.3483 77.9569 50.3604 77.9348 50.3725 77.9127C51.0325 76.7795 51.8601 75.9147 52.8551 75.3181C53.0839 75.181 53.3216 75.058 53.5681 74.9492C53.5846 74.9419 53.6011 74.9347 53.6177 74.9275C53.6689 74.9054 53.7205 74.8839 53.7724 74.8631C53.7724 74.8631 53.7725 74.8631 53.7724 74.8631C53.7747 74.8703 53.777 74.8775 53.7792 74.8847C53.7977 74.9442 53.8166 75.0032 53.836 75.0617C53.8586 75.1298 53.8818 75.1971 53.9056 75.2639C53.9151 75.2904 53.9246 75.3169 53.9343 75.3433C54.5093 76.9091 55.435 78.1113 56.7114 78.9499C56.7114 78.9499 56.7115 78.9499 56.7114 78.9499C57.6395 79.5595 58.7531 79.9771 60.052 80.2024C60.3354 80.2516 60.6277 80.2916 60.9288 80.3224C60.9341 80.323 60.9395 80.3235 60.9449 80.3241C60.9806 80.3277 61.0165 80.3312 61.0525 80.3345C61.0097 80.5379 60.9622 80.735 60.9099 80.9259C60.9083 80.9318 60.9066 80.9377 60.905 80.9436C60.8589 81.1106 60.8092 81.2729 60.7558 81.4304C60.4298 82.3922 59.9677 83.1766 59.3695 83.7833C59.3671 83.7858 59.3646 83.7882 59.3622 83.7907C58.8843 84.2733 58.32 84.6431 57.6691 84.8999C57.6638 84.902 57.6585 84.9041 57.6532 84.9061C57.4236 84.9958 57.1834 85.0716 56.9325 85.1333C56.6658 85.1931 56.4125 85.238 56.1725 85.2679C56.0205 85.2892 55.8821 85.3029 55.7572 85.309C55.7352 85.3101 55.7137 85.3109 55.6925 85.3115C55.6651 85.3123 55.6385 85.3127 55.6125 85.3127C55.0525 85.3127 54.7725 85.3725 54.7725 85.4921C54.7725 85.6635 55.0525 85.7531 55.6125 85.7607C55.6386 85.761 55.6652 85.7612 55.6925 85.7612C55.7088 85.7612 55.7252 85.7612 55.7415 85.761C55.9026 85.7599 56.0619 85.7532 56.2194 85.7408C56.2213 85.7407 56.2232 85.7405 56.2252 85.7404C56.4958 85.7189 56.7609 85.681 57.0205 85.6264C57.0232 85.6258 57.0259 85.6253 57.0287 85.6247C57.2958 85.5681 57.5571 85.4941 57.8125 85.4024C58.4792 85.1333 59.1058 84.7596 59.6925 84.2812C60.8052 83.3392 61.5118 82.2562 61.8124 81.0323C61.8142 81.0247 61.8161 81.0171 61.8179 81.0095C61.8535 80.8619 61.8832 80.7123 61.907 80.5606C61.9164 80.5005 61.9249 80.4401 61.9325 80.3794C61.9477 80.3796 61.9628 80.3797 61.9779 80.3799C61.9997 80.38 62.0214 80.3802 62.0431 80.3802C62.0522 80.3802 62.0613 80.3802 62.0703 80.3802C64.3681 80.3801 66.4004 79.663 68.1673 78.229C68.1696 78.2271 68.1719 78.2252 68.1742 78.2233C68.2272 78.1802 68.28 78.1365 68.3325 78.0921C70.3154 76.4752 71.3409 74.4122 71.4089 71.903C71.4113 71.8139 71.4125 71.7242 71.4125 71.6339C71.4125 69.8194 70.8054 68.2563 69.5911 66.9449C69.5849 66.9382 69.5787 66.9315 69.5725 66.9248C68.3992 65.6392 66.9592 64.9964 65.2525 64.9964C65.2258 64.9964 65.1991 64.9965 65.1725 64.9969C63.7933 65.0146 62.6067 65.4928 61.6125 66.4315C61.5925 66.4492 61.5727 66.467 61.5531 66.4849C61.5466 66.4908 61.5402 66.4966 61.5338 66.5025C60.4396 67.5064 59.8925 68.7385 59.8925 70.1988C59.8925 70.2591 59.8936 70.3189 59.8959 70.3782C59.9362 71.4178 60.3294 72.2848 61.0755 72.9794C61.0917 72.9944 61.108 73.0094 61.1245 73.0242C61.2274 73.1171 61.3367 73.2068 61.4525 73.2933C61.4778 73.3111 61.5021 73.3277 61.5256 73.3433C61.5675 73.3713 61.6065 73.396 61.6424 73.4172C61.68 73.4394 61.7142 73.4579 61.7452 73.4727C61.8076 73.5026 61.8567 73.5176 61.8925 73.5176H61.9325L61.9725 73.4727L62.6796 74.2656L62.6789 74.2664L62.6781 74.2672L62.6774 74.268L62.6767 74.2688L62.676 74.2696L62.6753 74.2704L62.6745 74.2713L62.6737 74.2721L62.673 74.2729L62.6723 74.2737L62.6715 74.2746L62.6708 74.2754L62.6701 74.2762L62.6693 74.2771L62.6686 74.2779L62.6678 74.2788L62.667 74.2796L62.6663 74.2804L62.6656 74.2812L62.6649 74.2821L62.6641 74.283L62.6633 74.2838L62.6625 74.2847L62.6618 74.2856L62.661 74.2864L62.6603 74.2872L62.6595 74.2881L62.6587 74.289L62.6579 74.2899L62.6571 74.2908L62.6564 74.2916L62.6557 74.2924L62.655 74.2932L62.6542 74.294L62.6535 74.2949L62.6527 74.2957L62.6519 74.2966L62.6511 74.2975L62.6503 74.2984L62.6495 74.2993L62.6487 74.3002L62.6479 74.3011L62.647 74.3021L62.6463 74.3029L62.6456 74.3037L62.6449 74.3045L62.6442 74.3053L62.6434 74.3061L62.6427 74.307L62.6419 74.3078L62.6412 74.3087L62.6404 74.3095L62.3467 74.6388H61.8925C61.6273 74.6388 61.4066 74.5321 61.3087 74.4822C61.1796 74.4164 61.0483 74.3323 60.9225 74.2441L60.91 74.2354L60.8978 74.2262C59.6092 73.2631 58.8925 71.8976 58.8925 70.1988C58.8925 68.3304 59.6278 66.7671 60.9802 65.5627C62.1841 64.4313 63.6258 63.8752 65.2525 63.8752C67.2069 63.8752 68.8999 64.6222 70.2675 66.1187C71.6793 67.6347 72.4125 69.4914 72.4125 71.6339C72.4125 74.6537 71.2104 77.1288 68.9275 78.9933C67.1144 80.523 65.041 81.3496 62.7374 81.4824C62.3491 82.9197 61.5063 84.1505 60.2951 85.176L60.2879 85.1821L60.2807 85.188C59.6194 85.7272 58.909 86.1515 58.1512 86.4574L58.1344 86.4642L58.1173 86.4703C57.3457 86.7471 56.5357 86.8824 55.6925 86.8824C55.3643 86.8824 55.0305 86.8609 54.7501 86.7788C54.614 86.7391 54.4064 86.6619 54.2137 86.4928C53.9915 86.2979 53.7725 85.9571 53.7725 85.4921C53.7725 84.8775 54.1554 84.5513 54.3289 84.4402C54.5066 84.3263 54.6867 84.2794 54.7954 84.2562C55.0309 84.2059 55.3175 84.1915 55.6125 84.1915C55.7197 84.1915 55.8633 84.1813 56.0485 84.1553L56.0621 84.1534C56.2673 84.1278 56.4888 84.0891 56.7271 84.036C57.6491 83.8074 58.3515 83.3704 58.8821 82.7524C59.2168 82.3625 59.5033 81.8769 59.7317 81.2802C58.219 80.9966 56.8973 80.4569 55.7957 79.6289C54.6866 78.7953 53.8367 77.6963 53.2459 76.3563C52.4421 76.8575 51.7679 77.5713 51.2168 78.5137C50.552 79.7268 50.2125 81.101 50.2125 82.6667C50.2125 83.0634 50.236 83.4606 50.2831 83.8587C50.3303 84.2274 50.4016 84.6153 50.4985 85.0226M50.4987 85.0238C50.82 86.3674 51.5852 87.4685 52.9031 88.3271C54.1648 89.0987 55.516 89.4836 56.9725 89.4836C59.3025 89.4836 61.6022 88.6443 63.8874 86.8992C64.6882 86.2818 65.5543 85.4841 66.4859 84.4976L66.4958 84.4871C67.4532 83.5007 68.4835 82.3173 69.5868 80.9329L69.5892 80.9299C70.0636 80.339 70.6458 79.5972 71.3368 78.7033L71.3429 78.6953L73.863 75.5559L75.9429 72.865L75.9492 72.8572C76.6719 71.957 77.3946 71.0715 78.1175 70.201C78.9914 69.1295 79.8471 68.1995 80.6848 67.416C81.0038 67.1062 81.318 66.8136 81.6274 66.5382C80.3346 65.9022 79.2029 65.3603 78.2318 64.9119L78.2241 64.9084L78.2164 64.9047C76.8671 64.2521 75.8395 63.7859 75.1237 63.4989C73.5927 62.9174 72.1352 62.4845 70.7504 62.197L70.7398 62.1948L70.7293 62.1924C69.3759 61.8774 68.0842 61.7224 66.8525 61.7224C64.8098 61.7224 62.9541 62.1177 61.2733 62.8937L61.2663 62.8969L61.2594 62.9C59.5362 63.6619 58.1096 64.8672 56.9657 66.5313C55.7825 68.2644 55.2125 70.1058 55.2125 72.0824C55.2125 72.2731 55.2175 72.4638 55.2275 72.6547C55.5949 72.6022 55.9634 72.5758 56.3325 72.5758C56.6531 72.5758 56.9555 72.5919 57.2374 72.6268C57.5338 72.6602 57.8295 72.71 58.1245 72.776C59.6276 73.0998 60.8489 73.9771 61.7435 75.3731C62.4095 76.4038 62.8151 77.5167 62.9413 78.6975C64.5082 78.5007 65.9448 77.8784 67.2661 76.8251C68.9726 75.4142 69.7325 73.7857 69.7325 71.903C69.7325 70.4662 69.2911 69.2714 68.3854 68.2558L68.372 68.2408L68.3591 68.2252C67.55 67.2464 66.517 66.7455 65.1725 66.7455C64.2135 66.7455 63.324 67.0829 62.4793 67.799C61.6376 68.6053 61.2925 69.4542 61.2925 70.3782C61.2925 70.8093 61.3753 71.1168 61.4987 71.3462C61.6216 71.5745 61.8209 71.7927 62.1499 71.9823L62.6925 72.2952V72.4708C62.7024 72.4855 62.7122 72.5005 62.7217 72.5158C62.9298 72.8491 62.9725 73.2118 62.9725 73.4727V73.9371L62.6796 74.2656L61.9725 73.4727C61.9725 73.371 61.9592 73.2864 61.9325 73.2189C61.9215 73.1909 61.9081 73.1658 61.8925 73.1437C61.8461 73.078 61.7794 73.0382 61.6925 73.0242V72.9794C61.6792 72.9717 61.666 72.964 61.6529 72.9562C61.6498 72.9544 61.6467 72.9525 61.6435 72.9506C61.5119 72.8717 61.3899 72.7859 61.2775 72.6935C61.2728 72.6896 61.2682 72.6858 61.2636 72.6819C60.6162 72.1421 60.2925 71.3742 60.2925 70.3782C60.2925 70.318 60.2936 70.2582 60.2958 70.1988C60.3411 68.9577 60.86 67.8664 61.8525 66.9248C61.875 66.9056 61.8975 66.8866 61.9201 66.8677C61.9242 66.8643 61.9283 66.8609 61.9324 66.8575C62.924 66.0353 64.004 65.6242 65.1725 65.6242C65.1993 65.6242 65.2259 65.6244 65.2525 65.6248C66.8161 65.6449 68.0961 66.2577 69.0925 67.463C69.0943 67.4651 69.0962 67.4672 69.098 67.4692C69.0997 67.4711 69.1014 67.4731 69.1032 67.475C70.1326 68.6345 70.6742 70.0209 70.728 71.6339C70.731 71.7229 70.7325 71.8126 70.7325 71.903C70.7325 74.1404 69.8258 76.039 68.0124 77.5986C68.01 77.6007 68.0075 77.6028 68.005 77.6049C67.9549 77.648 67.904 77.6908 67.8525 77.7333C66.3694 78.9175 64.7443 79.6133 62.9772 79.8209C62.7131 79.8519 62.4458 79.872 62.1754 79.8812C62.1641 79.8816 62.1528 79.882 62.1415 79.8823C62.0853 79.884 62.029 79.8853 61.9725 79.8861C61.984 79.6876 61.9867 79.4909 61.9805 79.2962C61.9801 79.2836 61.9796 79.2711 61.9792 79.2586C61.9792 79.2585 61.9792 79.2588 61.9792 79.2586C61.9756 79.1659 61.9701 79.0732 61.9625 78.9814C61.8771 77.9431 61.5338 76.959 60.9325 76.0291C60.9209 76.011 60.9093 75.9931 60.8976 75.9752C60.891 75.9651 60.8843 75.955 60.8776 75.9449C60.2195 74.9527 59.371 74.2977 58.3319 73.9799C58.3233 73.9773 58.3147 73.9747 58.3061 73.9721C58.1842 73.9356 58.0596 73.9037 57.9325 73.8764C57.7509 73.8356 57.5692 73.8018 57.3876 73.775C57.3719 73.7727 57.3562 73.7704 57.3405 73.7682C57.2712 73.7584 57.2018 73.7496 57.1325 73.7418C56.9035 73.7133 56.6501 73.6984 56.3725 73.6971C56.3592 73.697 56.3459 73.697 56.3325 73.697C55.9485 73.697 55.5645 73.7293 55.1805 73.7938C54.9746 73.8285 54.7686 73.8724 54.5627 73.9256C54.5562 73.9273 54.5497 73.929 54.5432 73.9307C54.4996 73.942 54.4561 73.9538 54.4125 73.9661L54.2525 73.0691C54.2468 72.9993 54.2418 72.9295 54.2373 72.8597C54.2208 72.6006 54.2125 72.3415 54.2125 72.0824C54.2125 71.9624 54.2144 71.8428 54.2181 71.7236C54.2443 70.8924 54.3616 70.084 54.5702 69.2987C54.8899 68.0947 55.424 66.9446 56.1725 65.8485C57.4258 64.0246 58.9992 62.6941 60.8925 61.857C62.7058 61.0198 64.6925 60.6012 66.8525 60.6012C68.1592 60.6012 69.5192 60.7657 70.9325 61.0945C71.7733 61.2691 72.6368 61.4946 73.523 61.7711C74.1098 61.9542 74.7067 62.1597 75.3135 62.3875C75.3163 62.3885 75.3192 62.3896 75.322 62.3907C75.3655 62.407 75.409 62.4235 75.4525 62.44C76.1992 62.739 77.2525 63.2174 78.6125 63.8752C78.911 64.013 79.2243 64.1594 79.5523 64.3145C79.5547 64.3156 79.557 64.3167 79.5594 64.3178C80.4457 64.7369 81.4397 65.2191 82.5415 65.7642C82.6792 65.8323 82.8187 65.9015 82.9598 65.9716C82.9789 65.9811 82.9981 65.9906 83.0173 66.0002C83.2125 66.0972 83.4109 66.1962 83.6125 66.297C83.3891 66.4639 83.1619 66.6424 82.9309 66.8324C82.9264 66.836 82.922 66.8397 82.9176 66.8433C82.8346 66.9116 82.7512 66.9814 82.6673 67.0527C82.2355 67.4193 81.7905 67.8252 81.3325 68.2703C80.5325 69.0178 79.7058 69.9147 78.8525 70.9612C78.1325 71.8283 77.4125 72.7103 76.6925 73.6073L74.6125 76.2982L74.17 76.8495L72.0925 79.4376C71.3992 80.3345 70.8125 81.082 70.3325 81.68C69.2125 83.0853 68.1592 84.2962 67.1725 85.3127C66.2125 86.3293 65.3058 87.1665 64.4525 87.8242C62.0258 89.678 59.5325 90.6049 56.9725 90.6049C56.9592 90.6049 56.9458 90.6048 56.9325 90.6048C55.3209 90.5977 53.8142 90.1642 52.4125 89.3042M67.7071 85.9473C67.7044 85.9499 67.7017 85.9525 67.699 85.9551C66.7251 86.8817 65.7523 87.6831 64.7806 88.3593C64.7799 88.3598 64.7792 88.3602 64.7785 88.3607C62.1687 90.1764 59.5667 91.0888 56.9725 91.0981C56.9592 91.0982 56.9458 91.0982 56.9325 91.0982C55.0992 91.0982 53.51 90.6693 52.1649 89.8116C52.1613 89.8093 52.1577 89.807 52.1541 89.8047C51.7814 89.5662 51.4276 89.2948 51.0925 88.9903C50.0327 88.0284 49.3072 86.8643 48.916 85.4979C48.9159 85.4976 48.9161 85.4981 48.916 85.4979C48.7902 85.0585 48.6988 84.5975 48.6422 84.1163C48.6419 84.114 48.6416 84.1117 48.6414 84.1095C48.5955 83.7172 48.5725 83.311 48.5725 82.8909C48.5725 82.8159 48.5732 82.7412 48.5747 82.6667C48.6093 80.8694 49.0619 79.2101 49.9325 77.6885C49.9435 77.6693 49.9545 77.6502 49.9655 77.6312C49.9678 77.6273 49.97 77.6235 49.9722 77.6197C50.8427 76.1262 52.0021 75.0377 53.4505 74.3542C53.454 74.3526 53.4575 74.3509 53.4611 74.3493C53.5036 74.3293 53.5464 74.3096 53.5894 74.2903C53.5971 74.2869 53.6048 74.2834 53.6125 74.28C53.602 74.2378 53.5917 74.1952 53.5818 74.1523C53.5536 74.0308 53.5278 73.9066 53.5044 73.7797C53.5038 73.7767 53.5032 73.7736 53.5027 73.7706C53.472 73.6034 53.4455 73.4315 53.4231 73.2551C53.4189 73.2218 53.4149 73.1884 53.4109 73.1549C53.3712 72.8143 53.3465 72.4569 53.337 72.0824C53.334 71.9645 53.3325 71.8449 53.3325 71.7236C53.3325 70.7915 53.4225 69.8882 53.6025 69.0138C53.9074 67.5321 54.4708 66.1331 55.2925 64.817C56.6525 62.6044 58.3725 61.1244 60.4525 60.377C62.5858 59.5398 64.7192 59.1212 66.8525 59.1212C68.1592 59.1212 69.5458 59.3156 71.0125 59.7042C71.9243 59.9459 72.867 60.28 73.8406 60.7065C74.4331 60.966 75.0371 61.2598 75.6525 61.5879C75.6691 61.5965 75.6857 61.6051 75.7023 61.6137C75.7062 61.6157 75.71 61.6176 75.7138 61.6196C76.7586 62.1611 77.7959 62.7196 78.8255 63.2951C78.8283 63.2966 78.8311 63.2982 78.8339 63.2997C79.1475 63.475 79.4603 63.6519 79.7725 63.8303C80.7877 64.3883 81.8103 64.9545 82.8403 65.5292C82.9853 65.6101 83.1305 65.6911 83.2758 65.7723C83.2868 65.7785 83.2978 65.7846 83.3088 65.7908C83.3101 65.7915 83.3115 65.7923 83.3129 65.7931C83.4491 65.8692 83.5854 65.9455 83.7219 66.022C83.7586 66.0425 83.7954 66.0631 83.8321 66.0837C83.8523 66.095 83.8724 66.1063 83.8925 66.1176C83.9944 66.0464 84.0958 65.9778 84.1968 65.9118C84.2662 65.8664 84.3354 65.8222 84.4044 65.7792C84.4909 65.7253 84.577 65.6734 84.6628 65.6233C84.6717 65.6181 84.6805 65.6129 84.6894 65.6078C84.691 65.6069 84.6926 65.606 84.6941 65.605C84.806 65.5403 84.9172 65.4788 85.0278 65.4205C85.195 65.3325 85.3607 65.2518 85.5251 65.1786C85.9643 64.983 86.3934 64.8405 86.8125 64.751C86.9245 64.727 87.0358 64.7069 87.1464 64.6905C87.3851 64.6552 87.6205 64.6376 87.8525 64.6376C88.6056 64.6376 89.2306 64.731 89.7275 64.918C89.7428 64.9237 89.758 64.9296 89.7731 64.9355C90.6927 65.2979 91.159 65.9909 91.1722 67.0145C91.1724 67.0294 91.1725 67.0444 91.1725 67.0594C91.1725 68.1358 90.6392 68.6739 89.5725 68.6739C89.4774 68.6739 89.3707 68.6655 89.2525 68.6486C88.9199 68.6011 88.496 68.4868 87.9806 68.3057C87.975 68.3037 87.9694 68.3017 87.9638 68.2997C87.5723 68.1616 87.1286 67.9851 86.6325 67.7705C86.5969 67.7551 86.5611 67.7395 86.525 67.7237C86.4013 67.6696 86.2744 67.6132 86.1444 67.5545C86.1412 67.5531 86.1381 67.5517 86.1349 67.5502C86.127 67.5467 86.119 67.5431 86.111 67.5395C86.0015 67.4899 85.8897 67.4386 85.7756 67.3858C85.7349 67.3669 85.6938 67.3478 85.6525 67.3285C85.6228 67.3703 85.5932 67.4125 85.5636 67.4551C85.4605 67.6038 85.3587 67.7569 85.2582 67.9145C85.2518 67.9246 85.2454 67.9348 85.2389 67.9449C84.8949 68.4874 84.5664 69.0822 84.2535 69.7294C84.2527 69.731 84.2519 69.7327 84.2511 69.7343C83.7978 70.6724 83.3771 71.7204 82.9892 72.8782C82.9888 72.8794 82.9884 72.8805 82.988 72.8816C82.9697 72.9361 82.9516 72.9909 82.9334 73.0459C82.6938 73.7735 82.4668 74.5436 82.2525 75.3564C82.1458 75.7451 82.0125 76.2085 81.8525 76.7467C81.7192 77.2848 81.5458 77.9277 81.3325 78.6751C80.6392 80.8578 79.8792 82.6816 79.0525 84.1467C79.0429 84.1643 79.0332 84.1819 79.0236 84.1995C78.6069 84.9575 78.1829 85.6183 77.7518 86.1819C77.3645 86.6882 76.9714 87.116 76.5725 87.4655C77.5732 86.8387 78.644 86.0002 79.785 84.9497C80.0746 84.683 80.3688 84.4026 80.6675 84.1086C80.6691 84.107 80.6708 84.1054 80.6724 84.1038C82.5259 82.2788 84.5533 79.9281 86.7546 77.0517C86.756 77.0499 86.7574 77.048 86.7589 77.0462C86.9356 76.8152 87.1135 76.5808 87.2925 76.343C89.0192 74.042 90.6723 71.9919 92.252 70.1925C97.9179 63.7385 102.638 60.5115 106.412 60.5115C107.062 60.5115 107.628 60.5655 108.111 60.6735C109.512 60.9869 110.213 61.7551 110.213 62.9782C110.213 63.1044 110.201 63.239 110.178 63.3818C110.118 63.7464 109.983 64.165 109.772 64.6376C109.666 64.8335 109.562 65.0016 109.46 65.1417C109.444 65.164 109.427 65.1857 109.411 65.2066C109.411 65.2073 109.41 65.208 109.41 65.2087C109.3 65.3497 109.194 65.4583 109.09 65.5345C109.046 65.5666 109.003 65.5929 108.96 65.6135C108.941 65.6224 108.922 65.6303 108.904 65.6371C108.846 65.6584 108.789 65.6691 108.733 65.6691C108.718 65.6691 108.704 65.6685 108.691 65.6674C108.585 65.6586 108.533 65.6143 108.533 65.5345L108.653 65.3552C108.678 65.3269 108.704 65.2962 108.733 65.263C108.824 65.1554 108.93 65.0217 109.053 64.8618C109.089 64.8144 109.124 64.7664 109.157 64.718C109.228 64.6132 109.29 64.506 109.342 64.3964C109.349 64.3832 109.355 64.37 109.361 64.3567C109.502 64.05 109.573 63.725 109.573 63.3818C109.573 63.2376 109.561 63.1031 109.537 62.9782C109.4 62.2674 108.877 61.8695 107.965 61.7846C107.841 61.773 107.711 61.7673 107.573 61.7673C105.999 61.7673 104.239 62.2905 102.293 63.337C101.902 63.5492 101.505 63.7815 101.102 64.0336C101.033 64.0773 100.963 64.1215 100.893 64.1664C100.615 64.3439 100.335 64.5307 100.052 64.7269C100.027 64.7446 100.001 64.7624 99.9755 64.7803C99.9561 64.7938 99.9366 64.8074 99.9172 64.8211C99.915 64.8226 99.9128 64.8242 99.9106 64.8257C99.9082 64.8274 99.9059 64.829 99.9036 64.8306C99.5113 65.1063 99.1136 65.3998 98.7106 65.7112C96.8982 67.1117 94.9776 68.8736 92.9489 70.997C91.3114 72.711 89.6034 74.6604 87.825 76.8454C87.8248 76.8457 87.8245 76.846 87.8243 76.8463C87.6345 77.0795 87.4439 77.3154 87.2525 77.5539C84.2925 81.1717 82.2525 83.5487 81.1325 84.6848C80.1877 85.6254 79.2808 86.4103 78.412 87.0394C77.9056 87.4061 77.4121 87.7198 76.9315 87.9807C76.9046 87.9953 76.8777 88.0098 76.8508 88.0241C76.8407 88.0294 76.8307 88.0348 76.8207 88.0401C75.999 88.474 75.2153 88.7519 74.4698 88.8739C74.4031 88.8848 74.3368 88.8945 74.2708 88.9029C74.2409 88.9067 74.2111 88.9102 74.1814 88.9135C73.9891 88.9348 73.7995 88.9455 73.6125 88.9455C73.5685 88.9455 73.5243 88.9447 73.4798 88.9433C73.1742 88.9333 72.8584 88.8892 72.5325 88.8109L72.4925 88.7661C72.4925 88.7532 72.5129 88.7313 72.5536 88.7005C72.5946 88.6694 72.6562 88.6293 72.7385 88.58C72.9244 88.4686 73.2157 88.3106 73.6125 88.1061C73.6764 88.0732 73.7431 88.039 73.8125 88.0036L74.3725 87.6449C74.5858 87.4954 74.7858 87.3459 74.9725 87.1964C75.4525 86.7778 76.2392 85.3576 77.3325 82.9358C77.7058 82.0986 78.0658 81.2764 78.4125 80.4691L79.4525 78.0473C79.9058 77.0905 80.3458 76.1337 80.7725 75.177C81.1887 74.2985 81.6049 73.4327 82.0211 72.5795C82.0583 72.5034 82.0954 72.4274 82.1325 72.3515C82.6925 71.2154 83.2258 70.2137 83.7325 69.3467C84.0211 68.8612 84.2941 68.4196 84.5515 68.0218C84.6129 67.9269 84.6734 67.8346 84.7329 67.7447C84.7376 67.7376 84.7423 67.7305 84.747 67.7235C84.8724 67.5348 84.9937 67.3572 85.1112 67.1907C85.1317 67.1615 85.1522 67.1327 85.1725 67.1042L84.6702 66.8539L84.6692 66.8534L84.0925 66.5661C84.0169 66.6173 83.9413 66.6695 83.8656 66.7227C83.7465 66.8063 83.6272 66.8922 83.5078 66.9804C83.4679 67.0098 83.428 67.0395 83.3881 67.0694C83.3833 67.073 83.3785 67.0766 83.3737 67.0803C83.339 67.1063 83.3043 67.1326 83.2696 67.159C83.2187 67.1978 83.1677 67.2371 83.1167 67.2767C82.6072 67.673 82.0947 68.1106 81.5793 68.5896C81.5774 68.5913 81.5756 68.593 81.5737 68.5948C80.7522 69.3586 79.9233 70.2275 79.0868 71.2014C79.0862 71.2022 79.0855 71.203 79.0849 71.2038C78.384 72.0199 77.6779 72.9099 76.9666 73.8736C76.9651 73.8756 76.9637 73.8775 76.9623 73.8795C76.3166 74.7544 75.6666 75.6902 75.0123 76.6867C75.0103 76.6896 75.0083 76.6926 75.0064 76.6956C74.8886 76.8751 74.7706 77.0566 74.6525 77.24C74.0127 78.234 73.3734 79.1745 72.7346 80.0615C72.7312 80.0661 72.7279 80.0707 72.7246 80.0754C72.148 80.8754 71.5718 81.6319 70.996 82.3448C70.9953 82.3457 70.9946 82.3466 70.9939 82.3474C69.8969 83.7055 68.8013 84.9054 67.7071 85.9473ZM75.4633 77.8963C69.4636 87.2175 63.2966 92.2194 56.9325 92.2194C54.3996 92.2194 52.2186 91.4564 50.4633 89.8618C48.5359 88.1124 47.5725 85.7517 47.5725 82.8909C47.5725 80.7928 48.0807 78.8485 49.0908 77.0831C49.9524 75.5772 51.0808 74.422 52.4632 73.6326C52.3748 73.0317 52.3325 72.3943 52.3325 71.7236C52.3325 68.9792 53.0504 66.4544 54.4712 64.1774C55.9407 61.788 57.8302 60.1455 60.1345 59.3139C62.3636 58.4407 64.6043 58 66.8525 58C68.2474 58 69.7117 58.2074 71.2425 58.6131C72.7881 59.0227 74.4 59.6792 76.0766 60.5725C77.471 61.2942 78.8521 62.0458 80.2197 62.8274C81.42 63.4871 82.6306 64.1585 83.8515 64.8414C85.2029 63.9868 86.541 63.5164 87.8525 63.5164C89.0357 63.5164 90.0961 63.7256 90.8878 64.3032C91.754 64.9351 92.1725 65.9137 92.1725 67.0594C92.1725 67.8027 91.9835 68.5567 91.4415 69.1037C90.9195 69.6305 90.2355 69.7952 89.5725 69.7952C89.0715 69.7952 88.4547 69.6413 87.7798 69.4097C87.2622 69.232 86.6653 68.9923 85.9918 68.6935C84.9257 70.4058 83.991 72.7181 83.2115 75.6742L83.2083 75.6861C83.1005 76.079 82.9672 76.5422 82.8092 77.0744C82.6723 77.6249 82.4972 78.2731 82.2849 79.0169L82.28 79.0342L82.2745 79.0513C81.9317 80.1307 81.5703 81.1327 81.1897 82.0553C82.8227 80.3196 84.602 78.1786 86.5283 75.6198C90.514 70.3086 94.1443 66.2785 97.4184 63.5675C100.676 60.87 103.687 59.3903 106.412 59.3903C107.743 59.3903 108.904 59.5997 109.764 60.1579C110.706 60.7699 111.213 61.7569 111.213 62.9782C111.213 63.5634 111.057 64.1737 110.817 64.7823C110.704 64.8668 110.595 64.9525 110.489 65.0395C110.47 65.0555 110.451 65.0715 110.432 65.0875C109.819 65.6031 109.339 66.1623 108.992 66.7653C108.909 66.7815 108.823 66.7903 108.733 66.7903C108.598 66.7903 108.332 66.7743 108.068 66.5969C107.723 66.3647 107.533 65.9592 107.533 65.5345V65.1608L107.732 64.8618L107.734 64.859L107.735 64.8575L107.736 64.8565L107.737 64.8555L107.738 64.8532L107.74 64.8506L107.895 64.6187L107.945 64.5623C108.026 64.4716 108.141 64.3313 108.293 64.1321L108.297 64.1275C108.503 63.8604 108.573 63.6219 108.573 63.3818C108.573 63.2419 108.551 63.173 108.54 63.1465C108.532 63.126 108.52 63.1068 108.488 63.0808C108.402 63.0109 108.149 62.8885 107.573 62.8885C106.194 62.8885 104.585 63.3483 102.727 64.347C102.447 64.4992 102.163 64.6623 101.876 64.8363C101.887 64.879 101.895 64.9215 101.901 64.9633C101.936 65.1935 101.899 65.379 101.877 65.4688C101.852 65.5695 101.819 65.6492 101.797 65.6996C101.736 65.8353 101.654 65.9599 101.589 66.0516C101.537 66.1402 101.484 66.2103 101.452 66.253C101.399 66.3217 101.34 66.3928 101.277 66.4642C101.143 66.6461 100.971 66.8522 100.772 67.0761C99.6732 68.3956 98.5909 69.9547 97.5266 71.7591L97.5214 71.7679C96.8217 72.9301 96.1316 74.2141 95.4518 75.6213L95.4476 75.63C94.7671 77.0091 94.0847 78.5093 93.4007 80.1312C92.5858 82.1655 91.9616 83.9176 91.523 85.3921C91.1223 86.7975 90.9409 87.8933 90.9328 88.7093C91.1021 88.6114 91.31 88.48 91.5592 88.3107C92.2343 87.8148 92.5593 87.5011 92.6667 87.3548C92.9355 86.966 93.3322 86.7479 93.7725 86.7479H94.1867L94.4796 87.0763C94.5298 87.1325 94.6002 87.2174 94.6646 87.3256C94.7111 87.4039 94.8525 87.6517 94.8525 88.0036C94.8525 88.3556 94.7111 88.6034 94.6646 88.6816C94.6033 88.7846 94.5366 88.8664 94.4871 88.9226C92.9887 90.6631 91.4237 91.7709 89.8125 91.7709C88.885 91.7709 88.1246 91.2839 87.6579 90.3833C87.2394 89.5758 87.0925 88.509 87.0925 87.3309C87.0925 84.4756 87.7372 81.5886 88.9923 78.6801L88.998 78.667C89.5167 77.5039 90.3038 76.1564 91.3363 74.6331L91.3419 74.6249L91.3476 74.6168C91.7585 74.0332 92.1956 73.4511 92.6588 72.8703C92.6827 72.8387 92.7067 72.8071 92.7309 72.7754C91.2186 74.4126 89.6403 76.2544 87.9959 78.3038L87.9894 78.3119C85.0339 81.9242 82.9634 84.3396 81.8034 85.5163L81.7965 85.5233C78.8872 88.4194 76.1459 90.0667 73.6125 90.0667C73.1887 90.0667 72.7583 90.0118 72.323 89.9072L72.0342 89.8379L71.4925 89.2305V88.7661C71.4925 88.4036 71.6453 88.1598 71.6913 88.0895C71.7547 87.9926 71.819 87.9259 71.853 87.8923C71.9241 87.8222 71.9951 87.7695 72.0381 87.7389C72.1322 87.6718 72.2469 87.6018 72.3645 87.5339C72.5992 87.3983 72.9328 87.2208 73.3564 87.0045L73.8589 86.6826C74.0416 86.5541 74.2116 86.4271 74.3691 86.3017C74.4606 86.2145 74.6928 85.9121 75.073 85.2257C75.4443 84.5554 75.8992 83.6279 76.4393 82.4317C76.8101 81.6002 77.1675 80.7839 77.5115 79.9827L78.5601 77.5409L78.5694 77.5213C79.0189 76.5725 79.4551 75.624 79.8781 74.6755L79.8836 74.6632L79.8894 74.6509C80.3447 73.6899 80.8002 72.7437 81.2557 71.8124L81.2573 71.8092C81.7788 70.751 82.2811 69.8005 82.7641 68.9599C80.4351 70.9946 77.9992 73.9577 75.4633 77.8963ZM94.8925 71.7236C94.3592 72.3814 93.8658 73.0093 93.4125 73.6073C92.9592 74.1754 92.5325 74.7434 92.1325 75.3115C91.1192 76.8065 90.3725 78.0921 89.8925 79.1685C88.6925 81.9491 88.0925 84.6699 88.0925 87.3309C88.0925 89.31 88.5512 90.4039 89.4687 90.6128C89.5769 90.6374 89.6915 90.6497 89.8125 90.6497C90.0735 90.6497 90.3402 90.6101 90.6125 90.5309C91.1468 90.3755 91.703 90.0677 92.281 89.6075C92.2843 89.6048 92.2876 89.6022 92.2909 89.5996C92.7395 89.2412 93.2013 88.791 93.6762 88.2491C93.6783 88.2467 93.6804 88.2443 93.6825 88.2419C93.7125 88.2077 93.7424 88.1731 93.7725 88.1382C93.8258 88.0784 93.8525 88.0335 93.8525 88.0036C93.8525 87.9737 93.8258 87.9289 93.7725 87.8691C93.7003 87.8691 93.6359 87.8866 93.5794 87.9217C93.5779 87.9226 93.5764 87.9236 93.5749 87.9245C93.5427 87.9451 93.5131 87.9715 93.4861 88.0036C93.4744 88.0175 93.4632 88.0325 93.4525 88.0485C93.3512 88.1904 93.1959 88.3559 92.9864 88.545C92.7547 88.7543 92.4567 88.9924 92.0925 89.2594C91.3458 89.7677 90.8525 90.0218 90.6125 90.0218C90.3247 90.0218 90.1282 89.8531 90.0231 89.5155C89.9627 89.3215 89.9325 89.0717 89.9325 88.7661C89.9325 87.7794 90.1458 86.5386 90.5725 85.0436C91.0258 83.5188 91.6658 81.7248 92.4925 79.6618C93.1858 78.0174 93.8792 76.4925 94.5725 75.0873C95.2291 73.7281 95.8977 72.4762 96.5783 71.3316C96.6163 71.2676 96.6544 71.2039 96.6925 71.1406C96.7138 71.1046 96.735 71.0686 96.7563 71.0328C96.7608 71.0252 96.7653 71.0176 96.7698 71.01C97.2714 70.1657 97.7786 69.3716 98.2914 68.6278C98.2935 68.6246 98.2957 68.6215 98.2979 68.6183C98.8757 67.7808 99.4605 67.007 100.053 66.297C100.142 66.1965 100.222 66.1039 100.293 66.0192C100.391 65.9024 100.471 65.8006 100.533 65.7139C100.534 65.7123 100.535 65.7107 100.537 65.7091C100.668 65.5622 100.746 65.4592 100.773 65.4C100.83 65.3231 100.87 65.2627 100.893 65.2188C100.923 65.1602 100.923 65.1309 100.893 65.1309C100.851 65.1309 100.769 65.1814 100.647 65.2823C100.636 65.2913 100.624 65.3007 100.613 65.3105C100.543 65.3695 100.462 65.443 100.369 65.5311C100.363 65.5373 100.356 65.5436 100.35 65.5499C100.274 65.6221 100.191 65.7036 100.1 65.7945C100.02 65.8754 99.9331 65.9637 99.8406 66.0594C99.8382 66.062 99.8357 66.0645 99.8332 66.0671C99.6851 66.2205 99.5219 66.3927 99.3436 66.5838C98.9379 67.0185 98.4542 67.5508 97.8925 68.1806C97.1992 68.9879 96.5992 69.6905 96.0925 70.2885C96.02 70.3698 95.9497 70.4492 95.8815 70.5269C95.8793 70.5294 95.8771 70.5319 95.8749 70.5344C95.8492 70.5637 95.8238 70.5927 95.7988 70.6215C95.4287 71.046 95.1266 71.4134 94.8925 71.7236ZM84.4125 66.3418C84.5749 66.4199 84.7272 66.4979 84.8695 66.576C84.8789 66.5811 84.8883 66.5863 84.8976 66.5915C84.9093 66.598 84.9209 66.6044 84.9325 66.6109L85.4125 66.7903C85.4595 66.7353 85.5057 66.6824 85.5511 66.6318C85.6812 66.4868 85.8049 66.3598 85.9224 66.2509C85.925 66.2485 85.9277 66.2461 85.9303 66.2436C85.9416 66.2332 85.9529 66.2229 85.9641 66.2128C85.9808 66.1977 85.9973 66.1831 86.0138 66.1688C86.0524 66.1352 86.0902 66.1037 86.1273 66.0742C86.1365 66.0669 86.1456 66.0598 86.1547 66.0528C86.1726 66.0389 86.1903 66.0256 86.2079 66.0127C86.2269 65.9988 86.2457 65.9855 86.2643 65.9727C86.3768 65.8954 86.4821 65.839 86.58 65.8036C86.6627 65.7737 86.7402 65.7588 86.8125 65.7588C86.8258 65.7588 86.8375 65.7597 86.8475 65.7616C86.8775 65.7672 86.8925 65.7812 86.8925 65.8036C86.8707 65.833 86.8485 65.8628 86.8259 65.893C86.8215 65.899 86.817 65.9049 86.8125 65.9109C86.7606 65.9803 86.7069 66.0518 86.6512 66.1253C86.5875 66.2097 86.5212 66.2968 86.4525 66.3867L85.8925 67.0145C86.061 67.0812 86.2235 67.1453 86.38 67.2068C86.4002 67.2148 86.4204 67.2227 86.4405 67.2306C86.6145 67.2989 86.781 67.364 86.9399 67.4258C87.3827 67.598 87.7669 67.745 88.0925 67.8667C88.6525 68.0461 89.0392 68.1358 89.2525 68.1358C89.3694 68.1358 89.4761 68.1243 89.5725 68.1013C90.0147 67.9958 90.2413 67.6485 90.2521 67.0594C90.2524 67.0446 90.2525 67.0296 90.2525 67.0145C90.2525 66.3867 89.9858 65.8933 89.4525 65.5345C88.9725 65.2655 88.4392 65.1309 87.8525 65.1309C87.8027 65.1309 87.7526 65.1319 87.7022 65.1338C87.416 65.1449 87.1194 65.1873 86.8125 65.2611C86.6858 65.2916 86.5572 65.3275 86.427 65.3687C86.2115 65.4368 85.9911 65.5195 85.766 65.6169C85.7449 65.626 85.7238 65.6353 85.7027 65.6447C85.7012 65.6453 85.6998 65.6459 85.6984 65.6466C85.6707 65.6589 85.6429 65.6714 85.615 65.6841C85.5018 65.7359 85.3873 65.7913 85.2717 65.8503C85.2557 65.8585 85.2398 65.8667 85.2238 65.875C85.2146 65.8797 85.2055 65.8844 85.1964 65.8892C85.1769 65.8993 85.1574 65.9096 85.1379 65.9199C85.0212 65.9818 84.9033 66.0474 84.7843 66.1165C84.6616 66.1878 84.5377 66.2629 84.4125 66.3418ZM88.9696 66.5178C88.6515 66.3472 88.2873 66.2533 87.8609 66.2521L87.6623 66.5193C87.9305 66.6226 88.1723 66.7145 88.3879 66.7952C88.6444 66.8769 88.8486 66.9342 89.0051 66.9705C89.085 66.9891 89.1466 67.0008 89.1922 67.0076C89.2297 67.0132 89.2486 67.0143 89.2525 67.0145C89.2522 67.0145 89.2528 67.0145 89.2525 67.0145C89.2525 66.8375 89.2135 66.6912 88.9696 66.5178ZM54.7027 75.0014C54.6562 74.8681 54.6128 74.7323 54.5725 74.5939C54.6208 74.5785 54.6694 74.5637 54.7183 74.5495C54.7231 74.5481 54.7279 74.5467 54.7328 74.5454C55.0004 74.4688 55.2768 74.4122 55.5622 74.3755C55.8122 74.3434 56.0689 74.3265 56.3325 74.325C56.3458 74.3249 56.3592 74.3248 56.3725 74.3248C56.597 74.3248 56.8294 74.3424 57.0695 74.3774C57.0716 74.3777 57.0737 74.378 57.0757 74.3783C57.1473 74.3888 57.2196 74.4009 57.2925 74.4145C57.4742 74.4315 57.6517 74.4533 57.8248 74.48C57.8263 74.4802 57.8278 74.4804 57.8293 74.4806C57.9595 74.5007 58.0872 74.5236 58.2125 74.5491C59.1192 74.7883 59.8525 75.3713 60.4125 76.2982C60.4311 76.3333 60.4493 76.3684 60.4672 76.4036C60.4677 76.4045 60.4681 76.4053 60.4686 76.4062C60.8509 77.1581 61.0775 77.9284 61.1483 78.7171C61.1633 78.8841 61.1714 79.052 61.1724 79.2206C61.1724 79.23 61.1725 79.2394 61.1725 79.2488C61.1725 79.2519 61.1725 79.255 61.1725 79.2582C61.1725 79.2809 61.1724 79.3031 61.1722 79.3247C61.1703 79.5482 61.1582 79.7149 61.136 79.8249C61.1348 79.8305 61.1337 79.8359 61.1325 79.8412C61.1181 79.8398 61.1038 79.8384 61.0895 79.837C61.0568 79.8337 61.0243 79.8302 60.9918 79.8266C60.9858 79.8259 60.9799 79.8252 60.974 79.8246C59.4936 79.6564 58.1998 79.1537 57.0925 78.3164C56.1543 77.6074 55.4422 76.7148 54.9564 75.6386C54.8686 75.4441 54.7882 75.2437 54.7152 75.0372C54.711 75.0253 54.7068 75.0134 54.7027 75.0014ZM56.0072 75.4576C56.4062 76.2176 56.9515 76.8578 57.6514 77.3866C58.3697 77.9298 59.1886 78.3183 60.1186 78.5419C60.0357 77.9958 59.8557 77.45 59.568 76.8999C59.1461 76.2132 58.6321 75.8181 58.0073 75.6469C57.7557 75.5966 57.4899 75.5581 57.2095 75.5319L57.1686 75.5281L57.1281 75.5205C56.8568 75.4698 56.6053 75.4461 56.3725 75.4461C56.2483 75.4461 56.1266 75.4499 56.0072 75.4576ZM55.1696 86.459C55.17 86.4589 55.1703 86.4588 55.1707 86.4588C55.1605 86.4616 55.1593 86.4612 55.1696 86.459Z" fill="#724776"/>
</g>
<g filter="url(#filter2_dd_1_47)">
<path fill-rule="evenodd" clip-rule="evenodd" d="M33.84 93.0519C33.92 93.0799 34 93.1164 34.08 93.1612C34.106 93.1612 34.1314 93.1609 34.1562 93.1603C34.2843 93.1573 34.3978 93.1464 34.4967 93.1278C34.5037 93.1264 34.5106 93.1251 34.5175 93.1237C34.6123 93.1043 34.6931 93.0775 34.76 93.0431C34.92 92.9609 35 92.8359 35 92.6679C35 92.4885 34.92 92.3988 34.76 92.3988C34.6863 92.3988 34.556 92.4369 34.3691 92.513C34.3531 92.5195 34.3368 92.5263 34.32 92.5333C34.2283 92.5676 34.1483 92.5953 34.08 92.6165C34.0515 92.6253 34.025 92.633 34.0006 92.6396C33.9302 92.6584 33.8767 92.6679 33.84 92.6679C33.7643 92.6679 33.6551 92.6378 33.5122 92.5775C33.5073 92.5755 33.5023 92.5733 33.4972 92.5712C33.4429 92.5478 33.3838 92.5203 33.32 92.4885C32.7364 92.265 32.2326 91.9607 31.8085 91.5754C31.7224 91.4971 31.6396 91.4155 31.56 91.3306C31.5326 91.3014 31.5057 91.2718 31.4791 91.2418C31.3709 91.1196 31.2691 90.9909 31.1738 90.8557C31.153 90.8261 31.1324 90.7962 31.1122 90.766C31.0297 90.6428 30.9523 90.5143 30.88 90.3806C31.0753 90.408 31.2817 90.4228 31.4993 90.4251C31.5194 90.4253 31.5397 90.4255 31.56 90.4255C31.5965 90.43 31.6326 90.4342 31.6685 90.438C31.8558 90.4582 32.0347 90.4689 32.2052 90.4702C32.2169 90.4703 32.2285 90.4703 32.24 90.4703C32.4822 90.4703 32.7229 90.4648 32.9621 90.4538C36.2241 90.3035 39.1967 89.128 41.88 86.9273C44.9733 84.3261 46.52 81.082 46.52 77.1951C46.52 75.8198 46.24 74.0857 45.68 71.9927C45.4431 71.1347 45.2436 70.3745 45.0815 69.7119C45.0063 69.4047 44.9391 69.1185 44.88 68.8533C44.7855 68.4144 44.7081 68.033 44.6478 67.709C44.646 67.6992 44.6441 67.6894 44.6423 67.6797C44.6255 67.5889 44.6101 67.5027 44.5961 67.4211C44.5632 67.2305 44.5379 67.0651 44.52 66.9248C44.5851 66.8609 44.6492 66.7973 44.7123 66.7342C44.7803 66.6662 44.8471 66.5987 44.9129 66.5317C44.9152 66.5293 44.9176 66.5269 44.92 66.5244C44.9982 66.4447 45.0747 66.3656 45.1497 66.2872C45.2388 66.194 45.3256 66.1017 45.4102 66.0105C46.9767 64.3198 47.76 62.9652 47.76 61.9467C47.76 61.8699 47.7546 61.7952 47.7439 61.7224C47.6959 61.3985 47.5413 61.1145 47.28 60.8703C47.0078 60.5651 46.7011 60.4015 46.36 60.3795C46.3335 60.3778 46.3069 60.377 46.28 60.377C44.8426 60.377 44.0618 61.9616 43.9376 65.1309C43.9342 65.2182 43.9313 65.3068 43.9289 65.3966C43.9259 65.5046 43.9237 65.6143 43.9223 65.7258C43.9221 65.7368 43.922 65.7478 43.9218 65.7588C43.9208 65.8459 43.9202 65.9341 43.92 66.0233C43.92 66.0398 43.92 66.0562 43.92 66.0727V66.9248C43.8757 66.9641 43.8316 67.0032 43.7877 67.0421C43.764 67.0632 43.7403 67.0841 43.7167 67.105C43.6618 67.1537 43.6072 67.2021 43.5529 67.2503C43.5455 67.2568 43.5381 67.2634 43.5307 67.2699C43.4398 67.3505 43.3498 67.4302 43.2607 67.5091C43.1641 67.5947 43.0686 67.6794 42.974 67.7631C42.5001 68.1829 42.0523 68.5793 41.6306 68.9523C41.6302 68.9526 41.6298 68.953 41.6294 68.9534C41.3697 69.183 41.1199 69.4038 40.88 69.6158C40.0853 70.3119 39.4062 70.9043 38.8428 71.3929C38.8357 71.3991 38.8286 71.4052 38.8216 71.4113C38.8004 71.4297 38.7794 71.4479 38.7585 71.466C38.7456 71.4772 38.7328 71.4883 38.72 71.4994C38.6915 71.4702 38.6627 71.4414 38.6336 71.413C38.5216 71.3031 38.4058 71.1985 38.2864 71.099C38.2851 71.0979 38.2837 71.0968 38.2824 71.0957C37.1317 70.139 35.6375 69.6606 33.8 69.6606C33.7331 69.6606 33.6664 69.6612 33.6 69.6624C30.7257 69.7146 28.2591 70.895 26.2 73.2036C26.1581 73.2506 26.1166 73.2978 26.0755 73.3451C26.0744 73.3464 26.0733 73.3476 26.0722 73.3489C24.0241 75.7103 23 78.5023 23 81.7248C23 81.8152 23.0009 81.9049 23.0028 81.9939C23.052 84.3224 23.7444 86.221 25.08 87.6897C25.0941 87.7045 25.1082 87.7193 25.1223 87.734C25.7866 88.4239 26.5554 88.9857 27.4286 89.4194C27.4328 89.4215 27.437 89.4236 27.4412 89.4256C27.9847 89.6945 28.5686 89.9138 29.1928 90.0836C29.2039 90.0866 29.215 90.0896 29.226 90.0926C29.3512 90.1262 29.4779 90.1578 29.6063 90.1875C29.6277 90.1924 29.6492 90.1973 29.6708 90.2022C29.8078 90.233 29.9466 90.2615 30.0872 90.2879C30.1774 90.3047 30.2683 90.3207 30.36 90.3358C30.4115 90.4338 30.4659 90.5295 30.5231 90.6231C30.5353 90.643 30.5476 90.6628 30.56 90.6825C30.5815 90.7166 30.6034 90.7505 30.6257 90.784C30.634 90.7964 30.6423 90.8088 30.6507 90.8212C30.7008 90.8951 30.7528 90.9676 30.8067 91.0385C30.9402 91.2144 31.0854 91.3812 31.2421 91.5388C31.7638 92.0633 32.4139 92.487 33.1927 92.8097C33.2014 92.8133 33.2101 92.8169 33.2189 92.8205C33.2785 92.845 33.3389 92.8688 33.4 92.8921C33.5333 92.9519 33.6533 92.9968 33.76 93.0267C33.7867 93.0341 33.8133 93.0425 33.84 93.0519ZM33.054 93.9444C31.6537 93.4064 30.5292 92.5593 29.7646 91.3632C27.6168 90.9332 25.8084 89.9962 24.3951 88.5066L24.3874 88.4985L24.3798 88.4902C22.7765 86.7271 22 84.4362 22 81.7248C22 78.1292 23.178 75.0063 25.4929 72.4108C27.7857 69.8401 30.5728 68.5394 33.8 68.5394C35.7233 68.5394 37.3913 69.0252 38.7283 70.0739C39.1795 69.6812 39.6909 69.2345 40.2626 68.7337C41.0433 68.0441 41.9291 67.2602 42.92 66.382V66.0727C42.92 64.1227 43.117 62.5016 43.6031 61.3285C43.852 60.7277 44.1952 60.1995 44.6645 59.822C45.1438 59.4364 45.6959 59.2558 46.28 59.2558C46.9337 59.2558 47.5021 59.5498 47.955 60.0421C48.4528 60.5231 48.76 61.1721 48.76 61.9467C48.76 62.8993 48.3424 63.8508 47.7578 64.7491C47.2358 65.5512 46.5102 66.4169 45.6019 67.3447C45.661 67.673 45.7434 68.0851 45.8511 68.5858C46.0316 69.3948 46.2922 70.4184 46.6353 71.6612L46.6379 71.6705C47.2114 73.8142 47.52 75.666 47.52 77.1951C47.52 81.4792 45.7917 85.0394 42.48 87.8242L42.4704 87.8323C40.2194 89.6785 37.767 90.8471 35.1251 91.3327C35.2973 91.3867 35.4825 91.4887 35.6471 91.6732C35.9408 92.0025 36 92.4053 36 92.6679C36 92.9568 35.9291 93.2574 35.7629 93.5248C35.6026 93.7827 35.3931 93.9466 35.2015 94.0494C34.8448 94.2406 34.4345 94.2824 34.08 94.2824H33.8439L33.6328 94.1641C33.5859 94.1378 33.5477 94.1229 33.5175 94.1144C33.3644 94.0715 33.2089 94.0128 33.054 93.9444ZM33.8326 91.5144C33.8396 91.5175 33.8464 91.5205 33.8528 91.5232C33.8668 91.5186 33.882 91.5135 33.8983 91.5078C33.8764 91.51 33.8545 91.5122 33.8326 91.5144ZM30.4298 89.2138C30.4466 89.2788 30.4639 89.3424 30.4815 89.4046C30.4886 89.4296 30.4958 89.4544 30.5031 89.479C30.5216 89.5418 30.5406 89.6032 30.56 89.663C30.6929 89.663 30.8267 89.6594 30.9612 89.6522C31.0255 89.6488 31.09 89.6445 31.1547 89.6395C31.169 89.6383 31.1833 89.6372 31.1976 89.636C31.3178 89.6259 31.4386 89.613 31.56 89.5972C31.5877 89.5936 31.6154 89.5899 31.6432 89.586C31.8405 89.5584 32.0394 89.5233 32.24 89.4808C32.4329 89.44 32.6272 89.3923 32.8231 89.3377C33.779 89.0714 34.7713 88.6417 35.8 88.0485C36.6267 87.5701 37.4133 87.0469 38.16 86.4788C38.9333 85.8808 39.6533 85.223 40.32 84.5054C41.3067 83.459 41.9733 82.5172 42.32 81.68C43.4556 79.2115 44.0977 76.6752 44.2464 74.0712C44.2688 73.6789 44.28 73.2851 44.28 72.8897C44.28 72.9689 44.2762 72.9689 44.2685 72.8897H43.2801C43.2806 72.8759 43.2817 72.8524 43.2842 72.8249C43.2856 72.8101 43.2916 72.7468 43.3094 72.6688C43.317 72.6355 43.3407 72.5351 43.3965 72.4185L43.3977 72.4159C43.4234 72.3618 43.5937 72.0042 43.9932 71.8736C44.031 71.8613 44.0708 71.851 44.1128 71.8431C44.142 71.8377 44.1705 71.8337 44.1984 71.831C44.1697 71.347 44.1334 70.7019 44.0896 69.8956C44.0758 69.642 44.0613 69.3725 44.046 69.0871C44.0459 69.0845 44.0457 69.0818 44.0456 69.0792C44.041 68.9932 44.0363 68.9058 44.0316 68.817C44.0228 68.6523 44.0138 68.4825 44.0045 68.3079C44.004 68.2987 44.0036 68.2896 44.0031 68.2805C43.9892 68.019 43.9749 67.7465 43.96 67.463C43.8558 67.552 43.747 67.6457 43.6335 67.7441C43.6184 67.7571 43.6032 67.7703 43.588 67.7836C43.4045 67.9429 43.2093 68.1141 43.0022 68.2972C42.6603 68.5996 42.2863 68.9345 41.88 69.3018C41.6434 69.5141 41.3939 69.7381 41.1316 69.9739C41.1312 69.9742 41.1308 69.9746 41.1303 69.975C40.7252 70.3393 40.2894 70.7316 39.823 71.152C39.6061 71.3475 39.3825 71.5491 39.1523 71.7568C39.1458 71.7627 39.1394 71.7685 39.1329 71.7744C39.102 71.8022 39.0711 71.8301 39.04 71.8582C39.1722 72.0065 39.2948 72.1598 39.4078 72.3183C39.4081 72.3187 39.4084 72.3192 39.4087 72.3196C39.5031 72.452 39.5907 72.588 39.6716 72.7275C40.1572 73.5654 40.4 74.5314 40.4 75.6255C40.4 75.6855 40.3994 75.7453 40.3983 75.8048C40.361 77.7306 39.7216 79.3751 38.48 80.7382C38.4044 80.8212 38.328 80.9019 38.2507 80.9801C36.9935 82.254 35.5233 82.8909 33.84 82.8909C33.7862 82.8909 33.7328 82.8902 33.68 82.8888C33.1423 82.8742 32.6552 82.7853 32.2188 82.6223C32.0728 82.5678 31.9325 82.5049 31.7978 82.4338C31.7897 82.4295 31.7816 82.4251 31.7735 82.4208C31.6143 82.3351 31.4632 82.2376 31.32 82.1285C31.2246 82.3719 31.1351 82.6115 31.0515 82.8472C31.0382 82.8845 31.0251 82.9217 31.0122 82.9588C30.9859 83.0343 30.9601 83.1094 30.935 83.1841C30.4183 84.7212 30.16 86.0885 30.16 87.2861C30.16 87.3464 30.1607 87.4062 30.1622 87.4655C30.1715 87.8466 30.2108 88.2054 30.28 88.5418C30.3236 88.7701 30.3712 88.985 30.4228 89.1866C30.4251 89.1957 30.4274 89.2048 30.4298 89.2138ZM31.8428 83.6633C32.4559 83.9019 33.1267 84.0121 33.84 84.0121C35.8951 84.0121 37.691 83.1742 39.1796 81.5393C40.6512 79.9238 41.4 77.931 41.4 75.6255C41.4 74.2794 41.0849 73.0674 40.454 72.0218C41.2206 71.3308 41.9041 70.716 42.5047 70.1773L42.5078 70.1746C42.7048 69.9964 42.8939 69.8262 43.0752 69.6639C43.1273 70.6288 43.1697 71.3853 43.2022 71.9328C43.2288 72.3806 43.2494 72.7013 43.2638 72.8859C43.264 72.8893 43.2643 72.8932 43.2646 72.8975C43.2672 72.9311 43.2718 72.9916 43.2793 73.0562C43.2558 75.8283 42.6449 78.5278 41.4313 81.166L41.4217 81.1867L41.413 81.2078C41.1432 81.8595 40.5795 82.6869 39.6328 83.6909L39.6275 83.6966C39.0012 84.3707 38.3241 84.9896 37.5955 85.5533C36.8841 86.0943 36.1332 86.5938 35.3424 87.0515C33.8753 87.8975 32.5295 88.3668 31.2967 88.5011C31.2835 88.4381 31.2705 88.3733 31.2578 88.3069L31.2562 88.2983L31.2544 88.2897C31.1934 87.9932 31.16 87.66 31.16 87.2861C31.16 86.2796 31.3749 85.0768 31.8428 83.6633ZM29.8297 88.5099C29.7832 88.182 29.76 87.8339 29.76 87.4655C29.76 87.406 29.7605 87.3462 29.7616 87.2861C29.7858 85.8912 30.0915 84.3176 30.6787 82.5652C30.6805 82.5599 30.6823 82.5545 30.6841 82.5492C30.7533 82.343 30.8264 82.1344 30.9035 81.9233C30.9221 81.8722 30.9409 81.821 30.96 81.7697C30.9237 81.7307 30.8885 81.6913 30.8543 81.6513C30.7757 81.5596 30.7025 81.4654 30.6348 81.3686C30.6195 81.3467 30.6045 81.3247 30.5897 81.3026C30.5816 81.2905 30.5736 81.2783 30.5657 81.2661C30.5313 81.213 30.4984 81.1593 30.4671 81.1048C30.3923 80.9744 30.3265 80.8398 30.2697 80.7011C30.1002 80.2873 30.0106 79.8362 30.0009 79.3479C30.0003 79.3181 30 79.2882 30 79.2582C30 78.8994 30.08 78.4808 30.24 78.0024C30.3594 77.6509 30.4788 77.3978 30.5983 77.2431C30.6117 77.2257 30.6252 77.2095 30.6387 77.1945C30.6706 77.1591 30.7025 77.1307 30.7345 77.1093C30.7634 77.0899 30.7923 77.0764 30.8212 77.0685C30.8275 77.0669 30.8337 77.0654 30.84 77.0643C30.8533 77.0618 30.8667 77.0606 30.88 77.0606C30.9333 77.0606 30.9867 77.0905 31.04 77.1503C30.9958 77.2989 30.9425 77.3962 30.88 77.4422C30.875 77.4459 30.8699 77.4493 30.8648 77.4523C30.8567 77.4571 30.8484 77.4611 30.84 77.4642H30.88C30.8709 77.4788 30.8619 77.4934 30.853 77.508C30.8487 77.5152 30.8443 77.5224 30.84 77.5296C30.7969 77.6016 30.7564 77.674 30.7186 77.7468C30.6568 77.866 30.6022 77.9864 30.5547 78.1079C30.5517 78.1156 30.5487 78.1233 30.5458 78.131C30.5456 78.1316 30.5454 78.1322 30.5451 78.1327C30.4058 78.4975 30.3312 78.8727 30.3212 79.2582C30.3204 79.288 30.32 79.3179 30.32 79.3479C30.32 79.6731 30.3643 79.9826 30.453 80.2765C30.517 80.4883 30.604 80.692 30.714 80.8876C30.7244 80.9061 30.735 80.9245 30.7458 80.9428C30.8412 81.1045 30.9526 81.2605 31.08 81.4109C31.1622 81.2041 31.2496 80.997 31.3422 80.7896C31.3627 80.7437 31.3835 80.6978 31.4045 80.6519C31.4574 80.5362 31.512 80.4203 31.5682 80.3044C32.1281 79.1495 32.8499 77.9837 33.7335 76.8072C33.7346 76.8057 33.7357 76.8042 33.7368 76.8028C34.7155 75.5002 35.8926 74.1844 37.268 72.8554C37.4865 72.6443 37.7099 72.4329 37.9384 72.2212C37.9404 72.2193 37.9425 72.2174 37.9445 72.2155C37.9762 72.1861 38.0081 72.1567 38.04 72.1273C37.9029 71.984 37.7616 71.8491 37.6161 71.7226C37.6125 71.7195 37.609 71.7165 37.6055 71.7134C37.4851 71.6092 37.3618 71.5107 37.2357 71.4179C36.2612 70.701 35.116 70.3254 33.8 70.2911C33.7338 70.2893 33.6671 70.2885 33.6 70.2885C31.1324 70.2885 28.8844 71.5054 26.8561 73.9393C26.824 73.9778 26.792 74.0166 26.76 74.0558C24.8227 76.4017 23.8236 78.9581 23.7629 81.7248C23.761 81.8143 23.76 81.904 23.76 81.9939C23.76 83.9583 24.3497 85.6782 25.5292 87.1538C25.5323 87.1577 25.5354 87.1616 25.5386 87.1655C25.5589 87.1908 25.5793 87.216 25.6 87.2412C26.2133 87.9887 26.8933 88.5568 27.64 88.9455C28.068 89.1854 28.5224 89.3664 29.003 89.4885C29.088 89.5101 29.1738 89.5298 29.2605 89.5477C29.3351 89.5631 29.4103 89.5771 29.4861 89.5898C29.6929 89.6244 29.9042 89.6488 30.12 89.663C30.054 89.4902 29.997 89.3095 29.9491 89.1209C29.9491 89.1207 29.9492 89.1212 29.9491 89.1209C29.9109 88.9701 29.8783 88.8136 29.8516 88.6527C29.8512 88.6501 29.8508 88.6476 29.8504 88.645C29.843 88.6004 29.8362 88.5553 29.8297 88.5099ZM29.8025 81.9943C29.1222 83.977 28.76 85.8062 28.76 87.4655C28.76 87.7373 28.7711 88.0037 28.7939 88.2641C28.5476 88.1761 28.3122 88.0687 28.0872 87.9426L28.0743 87.9353L28.0611 87.9285C27.4449 87.6077 26.8694 87.1322 26.3359 86.4821C25.2764 85.1909 24.76 83.7116 24.76 81.9939C24.76 79.4484 25.6374 77.0654 27.4938 74.8175L27.4972 74.8134C29.4046 72.4803 31.4321 71.4097 33.6 71.4097C34.7039 71.4097 35.6396 71.6725 36.4344 72.1818C35.0157 73.5686 33.7939 74.9553 32.7771 76.343H31.734C31.5693 76.1632 31.2813 75.9394 30.88 75.9394C30.3037 75.9394 29.9383 76.3608 29.7646 76.6166C29.5731 76.8983 29.426 77.2488 29.3055 77.6033L29.3037 77.6087C29.118 78.164 29 78.721 29 79.2582C29 80.2856 29.2726 81.2086 29.8025 81.9943ZM38.2654 72.5753C38.1282 72.7051 37.9929 72.835 37.8592 72.965C37.7728 73.0491 37.687 73.1332 37.602 73.2174C36.2745 74.5327 35.1271 75.8586 34.16 77.1951C33.1893 78.5113 32.4002 79.8167 31.7926 81.1114C31.7901 81.1167 31.7876 81.1219 31.7852 81.1272C31.704 81.3005 31.6262 81.4736 31.5515 81.6465C31.5274 81.7025 31.5035 81.7585 31.48 81.8145C31.4867 81.8201 31.4935 81.8257 31.5003 81.8312C31.6274 81.935 31.7596 82.0279 31.897 82.11C31.9024 82.1132 31.9078 82.1164 31.9133 82.1197C32.4302 82.4245 33.0191 82.577 33.68 82.577C33.7335 82.577 33.7868 82.576 33.84 82.5739C35.2189 82.5215 36.4989 81.79 37.68 80.3794C37.7605 80.2832 37.8385 80.1867 37.9137 80.09C37.9137 80.0901 37.9137 80.09 37.9137 80.09C38.9845 78.7139 39.52 77.2854 39.52 75.8048C39.52 75.7448 39.519 75.685 39.5171 75.6255C39.4916 74.8462 39.2994 74.1055 38.9406 73.4036C38.8665 73.2585 38.7852 73.1151 38.6968 72.9733C38.6918 72.9654 38.6868 72.9574 38.6818 72.9494C38.6019 72.8226 38.5163 72.6971 38.425 72.573C38.4216 72.5684 38.4182 72.5637 38.4148 72.5591C38.3968 72.5347 38.3785 72.5104 38.36 72.4861C38.3487 72.4967 38.3375 72.5072 38.3262 72.5178C38.3099 72.5332 38.2936 72.5486 38.2773 72.564C38.2734 72.5678 38.2694 72.5715 38.2654 72.5753ZM38.1663 74.155C38.4082 74.6925 38.52 75.2401 38.52 75.8048C38.52 77.0337 38.0521 78.2968 36.9509 79.612C35.8639 80.9103 34.7791 81.4558 33.68 81.4558C33.3632 81.4558 33.0797 81.4119 32.8243 81.3283C33.3744 80.2101 34.0746 79.0704 34.9306 77.9097L34.9366 77.9016C35.8408 76.652 36.916 75.4028 38.1663 74.155ZM30.609 76.9892L30.5238 76.4006C30.3024 76.4833 30.1823 76.6394 30.1363 76.7116C30.1112 76.751 30.0974 76.7816 30.0917 76.7959L30.609 76.9892ZM44.8819 65.9409C44.8396 65.9847 44.7968 66.0286 44.7535 66.0727C44.6519 66.1762 44.5474 66.2809 44.44 66.3867C44.4276 66.2756 44.4181 66.1709 44.4115 66.0727C44.4038 65.9595 44.4 65.8549 44.4 65.7588V65.1309C44.4 65.0562 44.4004 64.9825 44.4013 64.9097C44.4337 62.2445 45.06 60.8837 46.28 60.8273C46.3064 60.8261 46.3331 60.8254 46.36 60.8254C46.6991 60.8254 46.9553 60.897 47.1286 61.0401C47.1338 61.0444 47.139 61.0488 47.1441 61.0532C47.3147 61.2027 47.4 61.4258 47.4 61.7224C47.4 61.7956 47.3961 61.8704 47.3883 61.9467C47.2943 62.869 46.6315 64.0154 45.4 65.3858C45.2899 65.5083 45.1752 65.6327 45.056 65.7588C45.0115 65.8059 44.9664 65.8532 44.9206 65.9008C44.9077 65.9142 44.8948 65.9275 44.8819 65.9409ZM45.4802 63.6402C45.6172 63.4565 45.7387 63.2808 45.8452 63.113C46.1763 62.5912 46.3225 62.2086 46.3751 61.9467C46.3702 61.9467 46.3651 61.9467 46.36 61.9467C46.2041 61.9467 46.1132 61.9865 46.0493 62.0333C45.9802 62.0839 45.8827 62.1875 45.7807 62.4115C45.6553 62.6871 45.5485 63.0884 45.4802 63.6402Z" fill="#724776"/>
</g>
<g filter="url(#filter3_d_1_47)">
<path fill-rule="evenodd" clip-rule="evenodd" d="M156.885 40.0056L81.9423 3.22785L7 40.0056V112.767L81.9423 149.544L156.885 112.767V40.0056ZM82.3828 0.102276C82.105 -0.0340911 81.7796 -0.0340923 81.5017 0.102274L4.55944 37.8615C4.21701 38.0296 4 38.3778 4 38.7593V114.013C4 114.394 4.21701 114.743 4.55944 114.911L81.5017 152.67C81.7796 152.806 82.105 152.806 82.3828 152.67L159.325 114.911C159.668 114.743 159.885 114.394 159.885 114.013V38.7593C159.885 38.3778 159.668 38.0296 159.325 37.8615L82.3828 0.102276Z" fill="#520054"/>
</g>
<defs>
<filter id="filter0_dd_1_47" x="30.5725" y="49.1212" width="129.102" height="71.8788" filterUnits="userSpaceOnUse" color-interpolation-filters="sRGB">
<feFlood flood-opacity="0" result="BackgroundImageFix"/>
<feColorMatrix in="SourceAlpha" type="matrix" values="0 0 0 0 0 0 0 0 0 0 0 0 0 0 0 0 0 0 127 0" result="hardAlpha"/>
<feOffset dy="4"/>
<feGaussianBlur stdDeviation="2"/>
<feColorMatrix type="matrix" values="0 0 0 0 0 0 0 0 0 0 0 0 0 0 0 0 0 0 0.3 0"/>
<feBlend mode="normal" in2="BackgroundImageFix" result="effect1_dropShadow_1_47"/>
<feColorMatrix in="SourceAlpha" type="matrix" values="0 0 0 0 0 0 0 0 0 0 0 0 0 0 0 0 0 0 127 0" result="hardAlpha"/>
<feMorphology radius="6" operator="dilate" in="SourceAlpha" result="effect2_dropShadow_1_47"/>
<feOffset dy="8"/>
<feGaussianBlur stdDeviation="6"/>
<feColorMatrix type="matrix" values="0 0 0 0 0 0 0 0 0 0 0 0 0 0 0 0 0 0 0.15 0"/>
<feBlend mode="normal" in2="effect1_dropShadow_1_47" result="effect2_dropShadow_1_47"/>
<feBlend mode="normal" in="SourceGraphic" in2="effect2_dropShadow_1_47" result="shape"/>
</filter>
<filter id="filter1_dd_1_47" x="29.5725" y="48" width="99.64" height="70.2194" filterUnits="userSpaceOnUse" color-interpolation-filters="sRGB">
<feFlood flood-opacity="0" result="BackgroundImageFix"/>
<feColorMatrix in="SourceAlpha" type="matrix" values="0 0 0 0 0 0 0 0 0 0 0 0 0 0 0 0 0 0 127 0" result="hardAlpha"/>
<feOffset dy="4"/>
<feGaussianBlur stdDeviation="2"/>
<feColorMatrix type="matrix" values="0 0 0 0 0 0 0 0 0 0 0 0 0 0 0 0 0 0 0.3 0"/>
<feBlend mode="normal" in2="BackgroundImageFix" result="effect1_dropShadow_1_47"/>
<feColorMatrix in="SourceAlpha" type="matrix" values="0 0 0 0 0 0 0 0 0 0 0 0 0 0 0 0 0 0 127 0" result="hardAlpha"/>
<feMorphology radius="6" operator="dilate" in="SourceAlpha" result="effect2_dropShadow_1_47"/>
<feOffset dy="8"/>
<feGaussianBlur stdDeviation="6"/>
<feColorMatrix type="matrix" values="0 0 0 0 0 0 0 0 0 0 0 0 0 0 0 0 0 0 0.15 0"/>
<feBlend mode="normal" in2="effect1_dropShadow_1_47" result="effect2_dropShadow_1_47"/>
<feBlend mode="normal" in="SourceGraphic" in2="effect2_dropShadow_1_47" result="shape"/>
</filter>
<filter id="filter2_dd_1_47" x="4" y="49.2558" width="62.76" height="71.0267" filterUnits="userSpaceOnUse" color-interpolation-filters="sRGB">
<feFlood flood-opacity="0" result="BackgroundImageFix"/>
<feColorMatrix in="SourceAlpha" type="matrix" values="0 0 0 0 0 0 0 0 0 0 0 0 0 0 0 0 0 0 127 0" result="hardAlpha"/>
<feOffset dy="4"/>
<feGaussianBlur stdDeviation="2"/>
<feColorMatrix type="matrix" values="0 0 0 0 0 0 0 0 0 0 0 0 0 0 0 0 0 0 0.3 0"/>
<feBlend mode="normal" in2="BackgroundImageFix" result="effect1_dropShadow_1_47"/>
<feColorMatrix in="SourceAlpha" type="matrix" values="0 0 0 0 0 0 0 0 0 0 0 0 0 0 0 0 0 0 127 0" result="hardAlpha"/>
<feMorphology radius="6" operator="dilate" in="SourceAlpha" result="effect2_dropShadow_1_47"/>
<feOffset dy="8"/>
<feGaussianBlur stdDeviation="6"/>
<feColorMatrix type="matrix" values="0 0 0 0 0 0 0 0 0 0 0 0 0 0 0 0 0 0 0.15 0"/>
<feBlend mode="normal" in2="effect1_dropShadow_1_47" result="effect2_dropShadow_1_47"/>
<feBlend mode="normal" in="SourceGraphic" in2="effect2_dropShadow_1_47" result="shape"/>
</filter>
<filter id="filter3_d_1_47" x="0" y="0" width="163.885" height="160.772" filterUnits="userSpaceOnUse" color-interpolation-filters="sRGB">
<feFlood flood-opacity="0" result="BackgroundImageFix"/>
<feColorMatrix in="SourceAlpha" type="matrix" values="0 0 0 0 0 0 0 0 0 0 0 0 0 0 0 0 0 0 127 0" result="hardAlpha"/>
<feOffset dy="4"/>
<feGaussianBlur stdDeviation="2"/>
<feComposite in2="hardAlpha" operator="out"/>
<feColorMatrix type="matrix" values="0 0 0 0 0 0 0 0 0 0 0 0 0 0 0 0 0 0 0.25 0"/>
<feBlend mode="normal" in2="BackgroundImageFix" result="effect1_dropShadow_1_47"/>
<feBlend mode="normal" in="SourceGraphic" in2="effect1_dropShadow_1_47" result="shape"/>
</filter>
</defs>
</svg>
